<?xml version="1.0" standalone="no"?>
<!DOCTYPE svg PUBLIC "-//W3C//DTD SVG 20010904//EN"
 "http://www.w3.org/TR/2001/REC-SVG-20010904/DTD/svg10.dtd">
<svg version="1.0" xmlns="http://www.w3.org/2000/svg"
 width="1080.000000pt" height="1080.000000pt" viewBox="0 0 1080.000000 1080.000000"
 preserveAspectRatio="xMidYMid meet">

<g transform="translate(0.000000,1080.000000) scale(0.100000,-0.100000)"
fill="#000000" stroke="none">
<path d="M0 10067 l0 -734 39 -17 c24 -11 46 -32 60 -56 27 -49 27 -62 -3 -58
-30 4 -70 -18 -86 -47 -10 -18 -7 -35 16 -99 15 -43 33 -84 41 -91 7 -8 13
-18 13 -24 0 -5 9 -13 20 -16 11 -3 20 -10 20 -14 0 -13 44 -58 63 -64 9 -4
17 -14 17 -22 0 -19 28 -50 37 -42 3 4 18 0 34 -8 33 -18 75 -19 85 -4 3 6 6
34 6 62 1 42 -2 52 -16 51 -24 -2 -20 29 9 62 14 16 25 32 25 36 0 4 16 4 34
1 57 -9 83 3 96 42 13 38 4 166 -12 176 -9 6 35 104 52 114 6 3 10 15 10 26 0
10 5 19 10 19 6 0 10 18 10 40 0 22 -4 40 -10 40 -5 0 -10 8 -10 19 0 16 9 19
58 23 76 6 112 25 139 74 21 38 22 44 9 80 -8 24 -20 40 -32 43 -20 4 -84 66
-84 81 0 5 14 24 32 42 37 38 78 45 147 26 40 -10 46 -10 55 7 6 10 22 29 35
42 22 21 24 31 23 108 -1 62 -6 90 -17 101 -19 20 -20 54 0 54 8 0 15 5 15 10
0 6 -9 10 -20 10 -31 0 -28 64 5 94 14 13 30 37 36 55 6 17 15 29 19 26 5 -3
14 11 21 30 7 19 19 35 26 35 7 0 13 9 13 20 0 11 7 20 15 20 8 0 19 9 25 20
6 11 17 20 25 20 9 0 15 9 15 22 0 12 7 30 17 40 15 17 14 18 -27 18 -31 0
-48 -6 -61 -21 l-18 -21 -13 21 c-7 12 -18 21 -24 21 -14 0 -24 23 -24 56 0
14 5 23 13 21 6 -1 11 4 9 11 -1 7 9 18 23 24 14 6 25 15 25 20 0 4 6 8 13 8
27 0 67 26 67 43 0 10 8 17 20 17 10 0 24 9 30 20 11 20 8 20 -580 20 l-590 0
0 -733z m1080 423 c0 -5 -4 -10 -10 -10 -5 0 -10 5 -10 10 0 6 5 10 10 10 6 0
10 -4 10 -10z m-234 -310 c48 0 43 -17 -7 -22 -22 -2 -41 -2 -43 -1 -2 2 -1
16 2 31 4 19 7 22 10 10 2 -13 13 -18 38 -18z m-46 -50 c0 -5 -2 -10 -4 -10
-3 0 -8 5 -11 10 -3 6 -1 10 4 10 6 0 11 -4 11 -10z m-240 -612 c0 -30 -1 -31
-17 -16 -13 14 -14 20 -3 32 18 22 20 20 20 -16z m-215 -544 c-9 -9 -19 -13
-23 -10 -3 4 0 11 8 16 24 15 33 11 15 -6z"/>
<path d="M4998 10793 c23 -2 61 -2 85 0 23 2 4 4 -43 4 -47 0 -66 -2 -42 -4z"/>
<path d="M1020 10550 c0 -5 4 -10 9 -10 6 0 13 5 16 10 3 6 -1 10 -9 10 -9 0
-16 -4 -16 -10z"/>
<path d="M3703 10304 c-7 -3 -13 -12 -13 -19 0 -16 148 -345 161 -359 5 -5 11
-8 13 -5 2 2 -10 90 -27 194 l-32 190 -45 2 c-25 1 -51 0 -57 -3z m101 -121
c10 -60 19 -117 22 -128 l5 -20 -13 20 c-7 11 -34 66 -59 122 -50 108 -50 109
7 112 19 1 23 -9 38 -106z"/>
<path d="M7037 10268 c-10 -27 45 -381 65 -422 6 -10 14 -14 18 -10 11 12 32
416 22 425 -4 4 -28 10 -53 13 -34 5 -48 3 -52 -6z m79 -95 c-3 -42 -6 -114
-6 -161 0 -47 -2 -83 -4 -81 -4 4 -46 280 -46 305 0 9 11 14 31 14 l32 0 -7
-77z"/>
<path d="M7361 10183 c-18 -71 -71 -346 -71 -371 0 -17 3 -23 10 -16 14 14
170 353 170 369 0 14 -34 36 -77 49 -19 6 -23 2 -32 -31z m56 -5 c15 -7 29
-13 31 -14 2 -1 -22 -57 -54 -123 -31 -67 -59 -120 -60 -118 -4 4 47 267 52
267 2 0 16 -5 31 -12z"/>
<path d="M3425 10140 c-21 -22 -37 -41 -34 -43 8 -8 294 -193 326 -212 18 -10
35 -16 39 -12 6 6 -273 307 -286 307 -3 0 -23 -18 -45 -40z m110 -52 c91 -95
132 -142 115 -133 -8 5 -44 27 -80 50 -36 23 -85 54 -109 69 l-43 28 23 24
c12 13 25 24 29 24 3 0 33 -28 65 -62z"/>
<path d="M7628 9991 c-46 -36 -261 -272 -254 -278 4 -4 15 -2 24 4 18 12 185
111 265 158 26 15 47 33 47 41 0 20 -38 94 -49 94 -5 0 -19 -9 -33 -19z m50
-36 c7 -14 12 -27 12 -29 0 -5 -114 -77 -175 -112 l-50 -28 90 96 c50 53 95
96 101 97 6 1 16 -10 22 -24z"/>
<path d="M3240 9868 c-30 -49 -26 -66 18 -77 223 -59 380 -87 395 -72 6 6 9
12 6 14 -12 11 -372 167 -384 167 -9 0 -24 -15 -35 -32z m111 -27 c35 -15 96
-42 134 -59 39 -18 66 -32 62 -32 -14 0 -292 62 -296 66 -7 6 18 54 28 54 5 0
37 -13 72 -29z"/>
<path d="M6830 9613 c-14 -9 -30 -24 -37 -33 -40 -52 -15 -166 53 -235 66 -69
139 -73 195 -12 105 114 -86 367 -211 280z m89 -29 c35 -25 98 -129 106 -175
9 -50 -14 -89 -50 -89 -36 0 -100 62 -135 132 -34 69 -37 94 -14 126 18 26 60
29 93 6z"/>
<path d="M4064 9508 c-116 -209 -111 -198 -94 -208 27 -18 39 -10 64 38 41 78
38 76 82 53 58 -31 96 -25 136 23 18 21 24 91 10 112 -7 12 -122 84 -134 84
-4 0 -33 -46 -64 -102z m134 32 c59 -56 -17 -158 -89 -120 -18 10 -18 12 7 63
43 85 48 89 82 57z"/>
<path d="M4400 9530 c-10 -19 -9 -20 13 -15 20 5 29 0 46 -24 23 -32 49 -39
69 -19 19 19 14 31 -10 24 -17 -4 -30 2 -50 24 -31 35 -53 38 -68 10z"/>
<path d="M6648 9513 c-10 -2 -18 -8 -18 -13 0 -5 25 -64 56 -130 64 -140 68
-183 21 -188 -15 -2 -43 6 -62 17 -39 22 -50 15 -35 -23 8 -23 15 -26 57 -26
59 0 110 29 119 67 4 15 2 45 -4 67 -13 51 -101 236 -110 235 -4 -1 -15 -3
-24 -6z"/>
<path d="M4317 9340 c-137 -164 -132 -156 -105 -171 20 -11 26 -7 68 41 l47
53 39 -15 c36 -14 39 -19 36 -49 -2 -19 -8 -49 -14 -68 -8 -26 -7 -35 3 -42
22 -14 27 -11 33 19 10 50 39 332 35 336 -2 2 -13 6 -24 9 -16 4 -39 -18 -118
-113z m107 3 c-11 -83 -11 -83 -44 -71 -17 5 -30 12 -30 14 0 9 65 93 72 94 4
0 4 -17 2 -37z"/>
<path d="M6418 9413 c-10 -2 -18 -10 -18 -16 0 -7 26 -79 58 -162 56 -147 70
-166 101 -146 11 7 10 19 -9 67 -50 134 -104 264 -109 263 -3 -1 -14 -3 -23
-6z"/>
<path d="M6251 9355 c-40 -13 -75 -26 -78 -29 -6 -5 87 -308 98 -320 5 -5 41
1 89 15 75 22 80 26 80 52 0 15 -4 27 -10 27 -5 0 -10 -4 -10 -8 0 -11 -73
-52 -91 -52 -15 0 -57 126 -46 136 3 3 24 8 46 11 37 5 41 8 35 27 -4 11 -7
22 -9 23 -1 2 -21 -6 -44 -18 -24 -11 -44 -19 -45 -17 -9 15 -34 113 -30 120
3 4 32 8 64 8 l60 0 -12 25 c-6 14 -14 25 -17 24 -3 -1 -39 -12 -80 -24z"/>
<path d="M4624 9341 c-61 -37 -94 -106 -94 -196 0 -54 4 -68 26 -94 44 -53
129 -58 179 -11 61 57 86 197 47 263 -33 57 -100 73 -158 38z m110 -27 c35
-34 8 -190 -43 -251 -46 -55 -111 -27 -111 48 0 49 32 149 59 188 25 35 69 42
95 15z"/>
<path d="M6080 9293 c0 -10 12 -77 27 -150 26 -129 27 -132 8 -152 -33 -38
-88 -20 -100 32 -3 12 -16 73 -29 135 -13 63 -27 116 -29 119 -10 9 -47 -8
-47 -23 0 -37 51 -249 65 -271 52 -79 205 -33 205 61 0 31 -30 193 -46 249 -7
23 -54 23 -54 0z"/>
<path d="M4990 9273 c0 -5 -11 -80 -24 -168 -13 -88 -21 -163 -17 -167 4 -5
41 -11 82 -14 70 -6 76 -5 106 20 76 64 95 235 33 291 -26 24 -180 55 -180 38z
m138 -56 c18 -17 22 -31 22 -82 0 -73 -24 -150 -53 -170 -19 -13 -97 -22 -97
-11 0 2 9 64 20 138 11 73 20 139 20 146 0 19 59 5 88 -21z"/>
<path d="M5673 9226 c-99 -83 -48 -326 68 -326 18 0 32 -7 39 -20 12 -23 60
-50 90 -50 15 0 20 6 20 25 0 19 -5 25 -22 25 -30 0 -68 11 -68 19 0 3 13 14
30 23 37 21 65 108 55 171 -10 55 -38 110 -71 136 -38 30 -104 28 -141 -3z
m119 -27 c38 -51 51 -185 23 -239 -30 -57 -87 -50 -115 13 -38 88 -34 222 8
247 27 16 63 7 84 -21z"/>
<path d="M5255 9074 c-6 -136 -5 -168 6 -175 8 -5 48 -9 90 -9 71 0 77 2 82
22 8 29 1 35 -23 20 -11 -7 -41 -12 -66 -12 l-46 0 6 31 c3 17 6 51 6 76 0 37
3 44 18 39 9 -2 32 -7 50 -11 29 -6 32 -5 32 19 0 24 -2 25 -50 19 -50 -6 -50
-6 -50 23 0 16 3 46 7 67 6 38 6 39 42 32 20 -4 46 -13 59 -21 21 -14 22 -13
22 16 l0 30 -89 0 -89 0 -7 -166z"/>
<path d="M7684 9101 c-22 -4 -54 -17 -71 -29 -63 -44 -144 -147 -190 -240 -45
-89 -46 -93 -27 -106 13 -10 23 -11 31 -4 10 8 13 6 13 -6 0 -19 36 -22 43 -3
4 9 8 9 15 -2 9 -12 14 -12 36 2 79 52 276 301 276 349 0 21 -26 41 -45 34 -8
-3 -15 -1 -15 4 0 11 -5 11 -66 1z"/>
<path d="M770 9050 c0 -5 5 -10 10 -10 6 0 10 5 10 10 0 6 -4 10 -10 10 -5 0
-10 -4 -10 -10z"/>
<path d="M400 8817 c0 -8 -6 -17 -12 -20 -7 -2 -11 -6 -8 -9 3 -3 15 1 28 7
20 11 21 14 7 25 -12 10 -15 10 -15 -3z"/>
<path d="M441 8798 c-1 -22 4 -28 19 -28 11 0 20 7 20 15 0 8 -6 15 -14 15 -8
0 -17 6 -19 13 -3 6 -6 0 -6 -15z"/>
<path d="M2236 8707 c-111 -64 -199 -433 -251 -1055 -33 -405 -11 -727 64
-910 36 -90 74 -138 127 -161 68 -31 168 -12 203 38 33 46 71 170 97 315 48
270 96 502 130 636 36 136 117 391 135 420 11 18 6 -48 -22 -268 -32 -258 -21
-418 37 -533 44 -88 135 -143 195 -119 81 34 163 185 317 581 103 265 137 341
185 422 30 49 45 58 28 16 -18 -45 -150 -464 -190 -604 -114 -398 -147 -748
-96 -1015 18 -93 67 -204 115 -262 77 -93 231 -121 339 -63 96 53 187 180 252
350 l33 86 33 -6 c19 -3 33 -2 33 4 0 5 9 7 20 4 30 -8 57 22 69 75 9 39 61
469 61 509 0 29 56 63 125 77 121 25 167 29 176 14 5 -7 9 -58 9 -113 0 -232
30 -544 67 -695 36 -150 114 -258 228 -314 50 -24 67 -28 126 -24 60 3 75 8
126 43 107 74 199 238 292 520 l58 175 23 -62 c80 -222 192 -309 342 -267 89
24 112 74 233 499 130 457 229 730 341 939 66 123 167 272 177 261 6 -7 -56
-270 -146 -620 -145 -561 -190 -860 -168 -1116 16 -179 51 -272 140 -367 117
-125 273 -135 378 -25 51 53 223 422 223 479 0 7 11 9 35 5 19 -4 35 -3 35 2
0 5 11 7 24 5 20 -4 29 2 44 27 22 35 21 33 57 344 14 120 30 226 35 236 5 9
25 25 44 34 38 18 232 53 242 43 3 -3 10 -104 15 -224 25 -600 91 -808 287
-905 36 -18 64 -23 122 -23 68 0 79 3 121 32 79 55 134 126 198 256 33 67 69
151 81 187 52 153 106 340 151 515 39 152 43 147 54 -73 7 -126 9 -136 34
-164 23 -26 42 -34 130 -55 17 -4 28 0 38 13 12 16 15 17 23 4 8 -12 13 -13
30 -2 11 6 28 12 39 12 10 0 23 6 28 13 6 6 13 125 17 267 3 140 13 365 21
500 18 304 19 678 1 827 -17 142 -40 185 -113 206 -27 8 -53 12 -60 10 -11 -4
-35 -58 -47 -108 -3 -11 -4 0 -2 25 2 25 7 54 12 64 6 17 4 18 -22 12 -52 -13
-71 -33 -93 -98 -66 -204 -88 -549 -66 -1039 l7 -166 -49 4 c-45 5 -54 2 -81
-23 -25 -23 -36 -48 -56 -124 -26 -101 -104 -375 -135 -475 -50 -161 -139
-348 -196 -410 -20 -21 -38 -36 -40 -33 -3 2 -16 63 -29 134 -36 192 -64 872
-37 889 5 3 31 6 58 7 26 1 54 6 61 11 6 5 12 6 12 2 0 -5 9 0 20 10 46 42 9
104 -80 134 l-55 18 4 349 c3 317 1 358 -17 444 -24 116 -66 203 -122 254 -61
55 -102 70 -195 70 -67 0 -90 -4 -140 -27 -108 -50 -168 -129 -240 -315 -69
-179 -122 -448 -175 -886 -13 -105 -31 -207 -49 -265 -16 -53 -59 -197 -96
-321 -127 -428 -166 -531 -223 -600 l-29 -34 -14 24 c-21 37 -18 280 5 395 36
183 117 558 181 835 98 421 116 521 122 658 10 213 -26 304 -142 365 -56 29
-155 29 -213 -2 -109 -56 -186 -164 -331 -462 -138 -284 -224 -510 -341 -897
-17 -57 -33 -102 -35 -100 -1 1 4 91 13 198 10 132 16 331 16 620 1 431 -5
527 -44 661 -15 53 -52 104 -77 104 -11 1 -28 7 -37 14 -13 11 -20 11 -40 -3
-23 -15 -26 -15 -34 0 -6 11 -14 14 -23 8 -8 -4 -22 -9 -33 -9 -33 -3 -62 -49
-94 -151 -63 -198 -100 -496 -109 -864 l-5 -245 -55 -195 c-133 -475 -186
-622 -271 -747 -39 -57 -69 -90 -76 -82 -12 15 -50 256 -57 369 -12 159 -17
645 -7 655 3 3 31 7 62 8 31 1 56 5 56 11 0 5 3 6 7 3 12 -13 43 26 43 53 0
36 -34 66 -101 88 l-54 19 1 139 c0 76 2 238 3 359 2 169 -1 236 -13 291 -50
233 -144 329 -321 329 -71 0 -89 -4 -147 -33 -36 -18 -82 -50 -102 -72 -51
-56 -118 -196 -159 -330 -69 -227 -88 -335 -141 -775 -25 -210 -25 -210 -110
-460 -120 -359 -165 -473 -235 -603 -56 -104 -92 -105 -111 -3 -15 78 -12 260
5 376 35 231 81 406 235 890 193 607 215 796 104 903 -28 26 -54 43 -72 43
-117 7 -189 -40 -294 -191 -104 -148 -207 -344 -334 -632 -117 -268 -143 -324
-145 -313 -4 39 4 238 16 380 20 244 24 551 6 592 -32 76 -179 116 -235 64
-14 -13 -31 -38 -39 -55 -70 -150 -174 -394 -212 -501 -48 -133 -155 -493
-155 -522 0 -9 -2 -14 -5 -12 -6 6 20 305 45 519 31 264 43 465 37 613 -5 130
-7 140 -32 173 -24 31 -77 64 -103 64 -16 0 -45 -75 -78 -205 -18 -71 -33
-122 -34 -113 0 29 47 244 59 266 13 24 14 52 4 52 -5 0 -25 -10 -47 -23z
m1454 -413 c-11 -49 -41 -152 -65 -229 -119 -378 -293 -1006 -296 -1067 -1
-15 -3 -17 -6 -7 -4 16 42 251 73 374 29 113 106 380 169 585 35 113 75 246
89 297 31 110 45 147 52 141 2 -3 -5 -45 -16 -94z m719 49 c27 -123 55 -545
49 -758 l-3 -130 -115 -17 c-179 -26 -164 -32 -156 58 20 248 136 800 182 872
21 33 31 27 43 -25z m2968 -9 c37 -142 69 -849 41 -871 -17 -13 -256 -48 -265
-39 -9 8 11 190 38 351 57 345 131 623 163 612 6 -2 17 -26 23 -53z m-3153
-51 c-40 -108 -83 -265 -119 -443 -36 -172 -38 -135 -4 55 27 150 56 257 86
330 14 33 32 75 40 93 25 59 23 33 -3 -35z m2970 5 c-52 -132 -129 -446 -150
-618 -4 -30 -9 -49 -11 -43 -6 17 33 274 57 383 23 104 50 186 89 274 38 84
47 86 15 4z m-4463 -89 c-32 -68 -81 -187 -108 -264 -28 -77 -58 -160 -67
-185 -14 -39 -15 -40 -10 -10 20 112 221 606 239 588 3 -3 -21 -61 -54 -129z
m871 19 c-17 -51 -63 -199 -102 -328 -39 -129 -84 -278 -100 -330 -16 -52 -34
-114 -41 -138 -7 -23 -14 -41 -16 -39 -10 10 199 726 259 884 33 88 33 52 0
-49z m3628 -29 c-22 -63 -52 -178 -69 -255 -31 -148 -42 -163 -15 -23 24 129
53 237 86 322 17 42 32 76 34 75 1 -2 -15 -55 -36 -119z m-2967 2 c-19 -57
-48 -161 -63 -230 -16 -69 -29 -116 -29 -104 -2 53 63 306 101 396 11 26 22
46 23 45 2 -2 -13 -50 -32 -107z m-472 7 c-15 -77 -75 -320 -95 -385 -8 -27
-42 -133 -75 -238 -60 -192 -109 -356 -129 -430 -6 -22 -16 -60 -22 -84 -6
-23 -13 -41 -16 -38 -2 2 20 103 50 223 54 214 89 335 199 699 30 99 63 212
73 252 22 87 31 88 15 1z m-351 2 c-6 -11 -13 -20 -16 -20 -2 0 0 9 6 20 6 11
13 20 16 20 2 0 0 -9 -6 -20z m-709 -118 c-44 -108 -118 -322 -152 -440 -7
-23 -14 -40 -16 -38 -5 5 50 203 80 291 46 132 126 319 133 312 2 -2 -18 -58
-45 -125z m660 35 c-10 -9 -11 -8 -5 6 3 10 9 15 12 12 3 -3 0 -11 -7 -18z
m2905 -65 c-14 -28 -30 -53 -34 -56 -5 -3 5 21 22 54 17 32 32 57 34 55 2 -2
-8 -26 -22 -53z m-2925 25 c-10 -9 -11 -8 -5 6 3 10 9 15 12 12 3 -3 0 -11 -7
-18z m3180 -159 c-16 -78 -51 -228 -76 -333 -25 -104 -64 -266 -85 -360 -69
-297 -93 -358 -40 -104 62 301 222 967 228 950 2 -5 -10 -74 -27 -153z m-321
118 c-4 -13 -31 -69 -59 -124 -95 -188 -176 -410 -319 -872 -39 -124 -75 -237
-81 -252 -17 -44 -21 -33 -6 15 7 23 30 96 50 162 20 66 52 167 70 225 18 58
47 152 65 210 47 153 132 365 211 523 63 125 92 173 69 113z m-2943 -137 c-30
-63 -80 -177 -112 -254 -110 -268 -148 -356 -158 -362 -6 -4 -8 0 -4 8 3 8 22
52 42 99 20 47 61 146 91 220 58 142 185 413 191 407 2 -2 -21 -55 -50 -118z
m2917 -26 c-14 -32 -39 -87 -54 -123 -44 -101 -154 -413 -190 -538 -18 -61
-35 -110 -37 -108 -11 11 131 457 187 586 48 112 110 240 115 240 3 0 -7 -26
-21 -57z m473 25 c-3 -8 -6 -5 -6 6 -1 11 2 17 5 13 3 -3 4 -12 1 -19z m-2910
-30 c-3 -8 -6 -5 -6 6 -1 11 2 17 5 13 3 -3 4 -12 1 -19z m2900 -20 c-3 -8 -6
-5 -6 6 -1 11 2 17 5 13 3 -3 4 -12 1 -19z m-2913 -32 c-3 -15 -8 -25 -11 -23
-2 3 -1 17 3 31 3 15 8 25 11 23 2 -3 1 -17 -3 -31z m405 -75 c-7 -44 -14 -79
-17 -76 -3 2 1 41 8 85 7 44 15 79 17 76 2 -2 -1 -40 -8 -85z m-927 -77 c-32
-82 -76 -194 -97 -249 -38 -99 -91 -215 -99 -215 -3 0 47 127 111 283 63 155
119 295 125 310 6 15 12 26 14 24 3 -2 -22 -71 -54 -153z m3425 134 c-3 -8 -6
-5 -6 6 -1 11 2 17 5 13 3 -3 4 -12 1 -19z m470 -45 c-3 -10 -5 -4 -5 12 0 17
2 24 5 18 2 -7 2 -21 0 -30z m-3412 -69 c-15 -49 -28 -91 -31 -93 -8 -8 -4 16
11 60 7 24 19 64 25 88 6 23 13 41 16 39 2 -3 -7 -45 -21 -94z m2932 64 c-3
-7 -5 -2 -5 12 0 14 2 19 5 13 2 -7 2 -19 0 -25z m-614 -81 c-14 -37 -28 -65
-30 -63 -2 2 8 34 23 70 14 37 28 65 30 63 2 -2 -8 -33 -23 -70z m578 -88
c-16 -74 -52 -229 -80 -344 -27 -116 -55 -240 -62 -275 -7 -36 -14 -59 -16
-53 -8 23 76 408 164 756 30 116 25 58 -6 -84z m506 114 c-3 -10 -5 -4 -5 12
0 17 2 24 5 18 2 -7 2 -21 0 -30z m-4593 -57 c-3 -15 -8 -25 -11 -23 -2 3 -1
17 3 31 3 15 8 25 11 23 2 -3 1 -17 -3 -31z m4583 -13 c-3 -10 -5 -2 -5 17 0
19 2 27 5 18 2 -10 2 -26 0 -35z m-3040 -10 c-3 -10 -5 -2 -5 17 0 19 2 27 5
18 2 -10 2 -26 0 -35z m70 0 c-3 -10 -5 -4 -5 12 0 17 2 24 5 18 2 -7 2 -21 0
-30z m-1630 -35 c-3 -8 -6 -5 -6 6 -1 11 2 17 5 13 3 -3 4 -12 1 -19z m4520
-15 c-3 -10 -5 -4 -5 12 0 17 2 24 5 18 2 -7 2 -21 0 -30z m-4470 5 c-3 -8 -6
-5 -6 6 -1 11 2 17 5 13 3 -3 4 -12 1 -19z m1500 -15 c-3 -10 -5 -4 -5 12 0
17 2 24 5 18 2 -7 2 -21 0 -30z m3040 0 c-3 -10 -5 -4 -5 12 0 17 2 24 5 18 2
-7 2 -21 0 -30z m-2970 -10 c-3 -10 -5 -4 -5 12 0 17 2 24 5 18 2 -7 2 -21 0
-30z m-1580 -15 c-3 -8 -6 -5 -6 6 -1 11 2 17 5 13 3 -3 4 -12 1 -19z m1120 0
c-3 -8 -6 -5 -6 6 -1 11 2 17 5 13 3 -3 4 -12 1 -19z m3350 -35 c-3 -10 -5 -4
-5 12 0 17 2 24 5 18 2 -7 2 -21 0 -30z m-2970 -20 c-3 -10 -5 -2 -5 17 0 19
2 27 5 18 2 -10 2 -26 0 -35z m2960 -35 c-3 -8 -6 -5 -6 6 -1 11 2 17 5 13 3
-3 4 -12 1 -19z m-4507 -85 c-11 -17 -11 -17 -6 0 3 10 6 24 7 30 0 9 2 9 5 0
3 -7 0 -20 -6 -30z m837 -5 c-3 -8 -6 -5 -6 6 -1 11 2 17 5 13 3 -3 4 -12 1
-19z m2524 -179 c-5 -13 -10 -19 -10 -12 -1 15 10 45 15 40 3 -2 0 -15 -5 -28z
m-3474 -71 c-3 -8 -6 -5 -6 6 -1 11 2 17 5 13 3 -3 4 -12 1 -19z m3447 -22
c-3 -15 -8 -25 -11 -23 -2 3 -1 17 3 31 3 15 8 25 11 23 2 -3 1 -17 -3 -31z
m38 -158 c-62 -200 -91 -278 -103 -278 -5 0 1 24 13 53 26 65 78 217 108 320
13 42 25 75 28 73 2 -3 -19 -78 -46 -168z m-2041 -288 c-39 -108 -119 -276
-127 -267 -2 2 15 46 40 98 24 52 61 136 82 187 20 51 38 91 40 89 2 -1 -14
-50 -35 -107z m39 -73 c-39 -99 -90 -201 -96 -194 -2 2 8 33 24 68 15 35 43
104 62 152 19 49 37 81 38 72 2 -9 -11 -54 -28 -98z"/>
<path d="M9014 8516 c-9 -23 -9 -200 0 -486 5 -162 11 -290 13 -283 3 8 12 5
29 -10 13 -12 38 -30 56 -39 144 -72 184 -88 214 -88 55 0 39 -17 -23 -23 -32
-3 -59 -11 -61 -17 -2 -5 -17 -10 -32 -10 -16 0 -35 -8 -42 -18 -7 -10 -21
-21 -30 -25 -19 -7 -25 -57 -7 -57 5 0 8 -4 4 -9 -3 -5 11 -26 30 -47 19 -20
35 -40 35 -44 0 -10 71 -42 112 -50 47 -9 111 23 113 58 1 12 11 36 23 52 26
35 30 100 7 100 -8 0 -15 9 -15 20 0 17 7 20 40 20 29 0 40 4 40 15 0 12 13
15 60 14 33 -1 60 -6 60 -10 0 -5 7 -9 16 -9 8 0 12 5 9 10 -3 6 -1 10 4 10 6
0 11 -4 11 -9 0 -5 18 -12 40 -16 30 -5 40 -11 40 -26 0 -13 7 -19 23 -19 14
0 41 -17 66 -40 23 -22 48 -40 56 -40 8 0 15 -9 15 -20 0 -17 7 -20 40 -20
l40 0 0 53 c0 58 -27 121 -73 172 -15 16 -31 46 -36 65 -17 66 -20 99 -12 105
5 3 8 15 6 28 -14 106 -41 266 -60 354 -39 182 -69 242 -100 200 -7 -10 -16
-17 -21 -17 -5 0 -24 -18 -43 -40 -19 -22 -38 -40 -43 -40 -5 0 -18 -9 -30
-20 -12 -11 -30 -20 -40 -20 -11 0 -33 -7 -51 -17 -20 -10 -51 -15 -84 -14
-51 2 -53 1 -53 -23 0 -19 -5 -26 -19 -26 -11 0 -23 -4 -26 -10 -3 -5 -13 -10
-21 -10 -10 0 -14 13 -14 50 0 43 3 50 20 50 11 0 20 5 20 11 0 21 -23 89 -30
89 -4 0 -10 13 -13 29 -5 25 -54 84 -98 119 -25 19 -159 43 -165 28z m23 -628
c-2 -29 -3 -8 -3 47 0 55 1 79 3 53 2 -26 2 -71 0 -100z m603 -273 c11 -13 4
-15 -56 -13 -49 1 -56 3 -26 5 23 2 42 8 42 14 0 14 26 11 40 -6z m-196 -29
c-4 -12 -17 -16 -48 -14 -40 1 -40 1 -6 5 19 3 39 11 43 20 11 19 19 11 11
-11z"/>
<path d="M0 8150 l0 -260 43 0 c85 1 217 19 253 36 35 17 36 19 30 58 -4 22
-12 46 -18 53 -15 18 -42 67 -79 142 -29 59 -95 135 -172 197 -59 49 -57 58
-57 -226z"/>
<path d="M9023 7275 c0 -44 2 -61 4 -37 2 23 2 59 0 80 -2 20 -4 1 -4 -43z"/>
<path d="M8540 6494 c-87 -16 -130 -60 -130 -131 0 -80 77 -144 190 -158 78
-10 130 13 170 73 53 80 35 149 -51 192 -39 20 -132 32 -179 24z"/>
<path d="M10425 6410 c-3 -5 -15 -10 -25 -10 -13 0 -24 -14 -35 -44 -23 -61
-8 -238 26 -308 13 -27 26 -48 30 -48 4 0 13 -24 19 -53 14 -70 3 -103 -39
-109 -17 -3 -31 -1 -31 4 0 5 -5 6 -10 3 -6 -3 -13 1 -16 10 -4 9 -13 14 -20
11 -7 -3 -16 -1 -19 5 -4 5 -11 7 -16 4 -5 -4 -9 -1 -9 6 0 7 -3 9 -6 6 -4 -4
-16 3 -27 16 -14 15 -21 18 -24 9 -4 -10 -8 -10 -21 0 -13 11 -15 10 -10 -10
5 -16 1 -26 -13 -35 -31 -19 -26 -92 11 -150 17 -28 37 -47 48 -47 32 0 82
-75 82 -123 0 -55 -55 -157 -110 -203 -14 -12 -37 -33 -52 -47 -15 -14 -45
-38 -65 -54 -21 -15 -47 -36 -58 -47 -11 -10 -31 -25 -45 -34 -14 -9 -29 -22
-33 -29 -4 -7 -15 -13 -22 -13 -8 0 -15 -4 -15 -9 0 -5 -12 -23 -27 -39 -50
-54 -54 -61 -56 -129 l-2 -68 43 -3 c23 -2 42 -7 42 -13 0 -5 24 -9 53 -9 84
-1 187 -62 187 -112 0 -10 7 -18 15 -18 11 0 15 -11 15 -40 0 -29 -4 -40 -15
-40 -8 0 -15 -4 -15 -10 0 -5 -6 -10 -12 -10 -7 0 -26 -12 -41 -25 l-28 -25
46 -45 c26 -25 50 -45 55 -45 5 0 24 -6 42 -14 18 -8 51 -19 73 -25 23 -6 55
-25 73 -42 27 -27 32 -39 32 -78 0 -31 -6 -54 -17 -67 -10 -10 -29 -36 -43
-56 -14 -21 -28 -38 -32 -38 -5 0 -17 -9 -28 -20 -14 -14 -33 -20 -65 -20 -26
0 -59 -8 -80 -20 -20 -11 -44 -20 -54 -20 -10 0 -30 -10 -44 -22 -14 -13 -35
-31 -48 -40 -18 -14 -23 -29 -27 -92 -4 -66 -2 -77 17 -97 11 -13 21 -27 21
-32 0 -15 33 -36 58 -37 12 0 22 -4 22 -8 0 -12 92 -52 119 -52 29 0 121 32
121 42 0 5 17 8 38 7 30 0 33 -2 17 -9 -18 -8 -18 -9 -2 -9 10 -1 20 6 23 14
4 8 16 15 28 15 15 0 17 -3 8 -9 -10 -6 -5 -12 18 -21 17 -7 36 -20 43 -29 7
-9 33 -27 58 -40 64 -34 84 -52 124 -112 19 -30 36 -47 36 -39 1 8 4 -1 8 -20
4 -23 14 -38 28 -45 13 -5 22 -16 20 -24 -1 -7 6 -15 16 -16 16 -3 17 67 17
1349 l0 1352 -28 27 c-15 15 -31 27 -34 27 -12 0 -83 66 -167 153 -47 48 -93
87 -103 87 -10 0 -18 5 -18 10 0 6 -4 10 -9 10 -6 0 -13 -4 -16 -10z m-565
-1515 c10 -12 10 -15 -4 -15 -9 0 -16 7 -16 15 0 8 2 15 4 15 2 0 9 -7 16 -15z
m635 -1074 c-8 -17 -15 -37 -15 -46 0 -8 -7 -15 -15 -15 -10 0 -15 10 -15 33
0 44 10 78 21 71 5 -3 9 5 9 18 1 22 1 22 16 -4 13 -25 13 -31 -1 -57z"/>
<path d="M5655 5529 c-3 -4 1 -9 9 -12 8 -3 17 0 19 7 5 13 -21 18 -28 5z"/>
<path d="M6005 5470 c3 -5 11 -10 16 -10 6 0 7 5 4 10 -3 6 -11 10 -16 10 -6
0 -7 -4 -4 -10z"/>
<path d="M5116 5452 c-3 -6 -1 -14 5 -17 15 -10 25 3 12 16 -7 7 -13 7 -17 1z"/>
<path d="M6025 5427 c-4 -10 -5 -20 -3 -23 10 -9 38 9 38 25 0 13 -2 13 -9 2
-7 -11 -9 -11 -14 0 -3 11 -7 10 -12 -4z"/>
<path d="M7340 5387 c-17 -24 -6 -67 17 -67 17 0 21 23 6 38 -8 8 -11 23 -8
33 8 25 4 24 -15 -4z"/>
<path d="M6025 5371 c-6 -11 9 -23 19 -14 9 9 7 23 -3 23 -6 0 -12 -4 -16 -9z"/>
<path d="M7407 5354 c-3 -20 1 -28 19 -36 13 -6 27 -8 32 -3 4 4 1 10 -5 12
-7 3 -13 10 -13 18 0 7 -6 18 -14 24 -11 9 -15 6 -19 -15z"/>
<path d="M6862 5344 c-23 -16 -30 -58 -12 -69 6 -4 17 -2 25 5 7 6 19 10 27 9
24 -3 38 1 38 11 0 6 -3 9 -7 8 -17 -5 -54 24 -49 38 7 18 5 18 -22 -2z"/>
<path d="M7261 5348 c1 -7 5 -24 9 -38 7 -22 8 -21 9 13 1 20 -3 37 -9 37 -5
0 -10 -6 -9 -12z"/>
<path d="M7470 5334 c0 -8 5 -12 10 -9 6 4 8 11 5 16 -9 14 -15 11 -15 -7z"/>
<path d="M7225 5330 c-3 -5 -1 -10 4 -10 6 0 11 5 11 10 0 6 -2 10 -4 10 -3 0
-8 -4 -11 -10z"/>
<path d="M7481 5296 c-1 -12 -6 -16 -16 -12 -8 3 -22 9 -30 12 -10 4 -15 0
-15 -10 0 -9 -4 -16 -10 -16 -5 0 -10 -7 -10 -16 0 -8 -7 -22 -15 -31 -9 -8
-13 -18 -10 -21 3 -3 12 4 21 16 23 33 38 26 17 -8 -9 -16 -21 -30 -25 -30 -4
0 -8 -9 -8 -20 0 -11 -5 -20 -10 -20 -6 0 -10 -6 -9 -12 4 -19 -41 -88 -57
-88 -8 0 -14 -6 -14 -14 0 -8 -6 -16 -12 -19 -7 -2 -10 -7 -7 -11 10 -10 74
30 71 44 -1 6 1 9 6 6 5 -3 14 6 20 19 7 14 16 25 22 25 5 0 10 7 10 15 0 8 5
15 10 15 18 0 10 -24 -20 -59 -16 -19 -26 -39 -23 -44 3 -6 1 -7 -5 -3 -6 3
-13 -2 -17 -13 -3 -12 -17 -21 -32 -23 -22 -2 -28 -11 -40 -50 -7 -27 -17 -48
-22 -48 -4 0 -22 -13 -39 -30 -22 -20 -42 -30 -64 -30 -18 -1 -44 -7 -57 -14
-13 -7 -33 -11 -45 -8 -17 4 -19 3 -10 -9 13 -17 -11 -44 -41 -44 -11 0 -19
-6 -17 -12 1 -7 -2 -13 -8 -13 -5 0 -10 5 -10 10 0 15 -21 12 -42 -7 -14 -13
-38 -17 -96 -18 -65 0 -77 3 -80 18 -3 14 4 17 37 17 30 0 41 4 41 15 0 11
-12 15 -45 15 -42 0 -50 6 -46 33 1 8 -53 12 -113 8 -22 -2 -51 3 -65 11 -28
14 -57 48 -53 61 1 4 -3 7 -9 7 -6 0 -20 11 -31 25 -21 27 -38 31 -56 13 -9
-9 3 -27 51 -77 87 -91 169 -260 134 -275 -8 -3 -6 -9 6 -19 19 -16 24 -53 5
-41 -8 5 -9 2 -5 -10 4 -10 7 -21 7 -24 0 -4 5 0 10 8 7 11 10 7 10 -17 0 -18
-4 -33 -8 -33 -4 0 -14 -20 -21 -45 -8 -27 -19 -45 -28 -45 -11 0 -13 -7 -8
-31 5 -22 4 -29 -4 -25 -7 5 -11 -2 -11 -18 0 -14 1 -28 3 -30 1 -2 -10 -14
-25 -26 -16 -12 -28 -31 -28 -42 0 -14 -5 -18 -15 -14 -9 3 -15 0 -15 -9 0
-18 -40 -56 -52 -49 -4 3 -8 -2 -8 -11 0 -9 -4 -13 -10 -10 -5 3 -10 -1 -10
-9 0 -9 -4 -16 -9 -16 -5 0 -13 -9 -16 -21 -4 -12 -12 -18 -21 -15 -12 5 -18
-5 -15 -26 0 -4 -6 -5 -14 -2 -11 5 -13 2 -9 -10 5 -12 2 -15 -10 -10 -12 5
-15 2 -10 -10 8 -21 -12 -21 -24 0 -8 14 -10 14 -21 0 -19 -22 -34 -20 -26 4
4 11 2 20 -4 20 -6 0 -11 -7 -11 -15 0 -8 -4 -15 -9 -15 -5 0 -11 -12 -14 -27
-5 -25 -42 -53 -70 -53 -5 0 -21 -12 -34 -27 -22 -22 -28 -25 -45 -14 -21 13
-38 7 -38 -13 0 -7 -11 -18 -25 -24 -31 -14 -38 -15 -31 -4 7 11 -46 8 -65 -3
-22 -14 -52 -13 -77 3 -19 12 -22 13 -20 1 6 -29 -80 -26 -208 7 -115 30 -254
86 -254 104 0 4 -12 13 -28 19 -15 6 -34 25 -41 43 -8 17 -22 33 -32 35 -12 4
-21 18 -25 42 -6 33 -28 118 -55 212 -17 55 14 226 56 314 30 62 162 234 186
243 5 2 9 7 9 11 0 13 -66 7 -83 -7 -18 -15 -37 -8 -37 14 0 8 -7 14 -15 14
-8 0 -15 6 -15 13 -1 6 -8 0 -16 -15 -18 -33 -29 -35 -44 -7 -11 19 -13 20
-30 4 -17 -16 -21 -15 -67 10 -26 15 -56 34 -66 43 -9 8 -20 12 -24 9 -3 -4
-1 -7 5 -7 7 0 12 -12 12 -27 0 -39 35 -94 55 -87 8 4 15 2 15 -4 0 -6 -5 -12
-11 -14 -9 -3 -8 -11 1 -28 8 -15 14 -69 16 -135 4 -118 -10 -197 -33 -188 -7
3 -17 -6 -23 -21 -5 -14 -12 -26 -16 -26 -3 0 -4 7 0 15 11 30 -12 14 -28 -19
-18 -39 -20 -50 -6 -41 6 4 7 -2 1 -17 -4 -13 -6 -28 -4 -34 2 -6 -6 -19 -17
-29 -18 -16 -20 -16 -20 -2 0 26 -12 21 -55 -23 -22 -22 -43 -39 -49 -37 -8 3
-53 -33 -107 -85 -10 -9 -20 -14 -22 -11 -3 2 -8 -4 -11 -15 -4 -11 -19 -25
-34 -31 -15 -6 -47 -28 -70 -49 -35 -31 -55 -40 -120 -52 -92 -17 -226 -15
-304 5 -60 15 -155 59 -220 102 -32 22 -40 24 -54 12 -14 -12 -14 -14 2 -26
10 -7 28 -13 41 -13 13 0 26 -7 29 -15 3 -8 14 -17 24 -20 12 -4 17 -12 13
-21 -3 -8 4 -23 16 -33 21 -19 24 -40 7 -52 -12 -9 6 -34 24 -34 8 0 17 -11
20 -25 4 -14 12 -24 18 -23 7 2 12 -7 13 -20 0 -12 3 -16 6 -9 9 22 31 13 53
-23 12 -19 26 -33 31 -29 5 3 9 -2 9 -10 0 -9 -6 -16 -12 -16 -9 0 -8 -4 2
-10 10 -6 11 -10 3 -10 -7 0 -13 -4 -13 -10 0 -5 7 -7 16 -3 14 5 14 3 3 -16
-14 -22 -39 -29 -39 -11 0 10 -36 50 -45 50 -9 0 -5 -39 4 -44 4 -3 6 -17 3
-31 -4 -25 11 -35 23 -15 4 6 11 8 16 5 16 -11 9 -25 -16 -31 -16 -4 -25 -13
-25 -26 0 -17 3 -18 14 -9 11 9 16 9 22 0 4 -7 2 -15 -4 -17 -7 -2 -12 -10
-12 -18 0 -8 -7 -14 -15 -14 -8 0 -15 -9 -15 -19 0 -11 -3 -28 -7 -38 -4 -13
0 -12 16 6 12 14 24 35 27 48 9 33 22 20 16 -17 -2 -17 -10 -30 -18 -30 -8 0
-14 -6 -14 -13 0 -7 -14 -23 -30 -35 -29 -22 -42 -18 -18 6 8 8 8 12 1 12 -17
0 -36 -28 -35 -55 0 -18 -7 -27 -24 -31 -13 -3 -24 -10 -24 -15 0 -5 -9 -9
-19 -9 -11 0 -23 -4 -26 -10 -3 -6 1 -7 9 -4 9 3 16 1 16 -5 0 -6 -8 -11 -19
-11 -10 0 -24 -7 -31 -15 -7 -8 -16 -12 -21 -9 -5 3 -6 -2 -2 -12 5 -13 2 -15
-15 -9 -14 4 -22 2 -22 -5 0 -6 5 -8 10 -5 6 3 10 3 10 0 0 -3 -13 -11 -30
-16 -16 -6 -30 -16 -30 -21 0 -6 -17 -8 -44 -4 -38 6 -46 4 -55 -12 -6 -11 -8
-22 -4 -25 5 -6 -46 -31 -55 -27 -2 0 -11 -8 -20 -19 -9 -11 -31 -22 -49 -26
-28 -6 -31 -4 -26 14 6 23 -7 27 -38 10 -16 -8 -18 -14 -9 -24 14 -17 -37 -26
-137 -24 -69 2 -79 6 -74 33 1 5 -5 6 -13 3 -8 -3 -16 -2 -18 2 -5 12 -58 23
-58 12 0 -10 -69 -5 -105 9 -27 10 -81 78 -114 143 -13 26 -29 47 -36 47 -21
0 -36 25 -23 38 9 9 9 15 0 24 -7 7 -12 29 -12 50 0 26 -5 41 -16 45 -13 5
-12 8 5 24 18 17 61 116 61 140 0 6 -30 -34 -66 -88 -105 -155 -139 -181 -92
-70 19 46 47 92 120 200 18 26 18 27 0 27 -20 0 -56 -33 -47 -42 3 -3 -1 -11
-10 -18 -8 -7 -15 -20 -15 -29 -1 -24 -27 -66 -41 -66 -7 0 -20 -18 -28 -40
-8 -22 -19 -41 -23 -43 -4 -2 -8 -33 -8 -68 0 -57 3 -68 27 -92 15 -15 26 -28
25 -29 -8 -11 4 -23 41 -39 23 -10 59 -32 79 -49 20 -17 62 -39 92 -49 31 -9
56 -22 56 -27 0 -12 -40 -5 -106 17 -58 20 -201 46 -233 43 -14 -2 -37 3 -51
11 -14 8 -53 24 -88 36 -35 12 -74 30 -87 38 -19 12 -23 13 -19 2 3 -7 15 -18
27 -24 20 -10 20 -11 3 -11 -20 -1 -20 -1 0 -15 11 -9 29 -12 42 -9 19 4 23 2
20 -13 -3 -19 -10 -17 147 -53 180 -41 235 -56 235 -63 0 -4 9 -8 20 -8 11 0
43 -9 72 -20 40 -15 54 -17 60 -7 4 6 15 13 25 13 10 1 38 5 63 8 l45 7 -50
-21 c-27 -12 -57 -27 -65 -35 -12 -11 -38 -11 -145 1 -71 7 -167 13 -213 13
-49 1 -97 7 -118 16 -32 13 -35 13 -30 0 9 -25 -11 -17 -33 13 -11 15 -31 37
-43 50 -19 19 -20 22 -5 22 9 0 27 -10 38 -21 27 -27 116 -45 264 -53 136 -8
120 1 -92 48 -155 35 -201 47 -236 61 -15 6 -17 2 -13 -31 5 -58 36 -126 53
-120 8 3 11 1 8 -4 -3 -6 0 -18 7 -29 28 -40 137 -161 230 -255 55 -55 98
-107 98 -118 0 -29 28 -79 68 -120 31 -33 54 -76 67 -128 6 -28 26 -75 33 -80
36 -26 86 -118 113 -205 28 -92 53 -161 61 -169 9 -12 10 -51 2 -84 -7 -26
-30 -28 -70 -7 -16 8 -37 15 -46 15 -10 0 -18 4 -18 8 0 4 -20 21 -45 36 -25
16 -45 32 -45 35 0 6 -31 26 -87 57 -13 7 -23 10 -23 7 0 -3 -6 0 -14 6 -14
12 -46 5 -46 -10 0 -5 -9 -9 -20 -9 -11 0 -20 -4 -20 -10 0 -5 -4 -10 -10 -10
-5 0 -10 8 -10 18 0 16 -15 20 -114 31 -101 12 -117 11 -142 -3 -16 -8 -37
-18 -47 -22 -9 -3 -17 -13 -17 -20 0 -8 -4 -14 -10 -14 -5 0 -24 -21 -42 -47
-18 -27 -40 -56 -49 -66 -9 -10 -19 -31 -23 -47 -4 -21 -10 -28 -21 -24 -8 4
-17 -1 -21 -10 -4 -10 -19 -17 -43 -18 -35 -1 -35 -1 9 -8 26 -4 35 -8 20 -9
-14 -1 -92 -6 -175 -11 -121 -7 -164 -14 -220 -35 -90 -33 -133 -53 -170 -79
-22 -15 -46 -21 -97 -21 -37 -1 -71 -5 -75 -8 -3 -4 -1 -7 6 -7 6 0 0 -15 -14
-32 l-26 -33 -84 3 c-62 3 -85 7 -85 17 0 9 -23 15 -75 20 -65 6 -81 4 -120
-15 -24 -12 -47 -30 -50 -40 -6 -19 -39 -36 -62 -32 -7 2 -13 -4 -13 -13 0
-20 -7 -19 -37 5 -14 11 -33 20 -43 20 -9 0 -25 9 -35 20 -10 11 -24 20 -32
20 -7 0 -13 6 -13 13 0 8 -10 19 -23 25 -12 7 -40 23 -62 37 -22 14 -54 31
-70 39 -17 7 -37 19 -45 27 -14 13 -81 47 -98 50 -19 3 -42 21 -42 34 0 7 -14
16 -30 20 -17 4 -30 11 -30 16 0 5 -7 9 -15 9 -8 0 -15 4 -15 10 0 5 -11 12
-25 16 -14 3 -25 10 -25 15 0 5 -6 9 -13 9 -7 0 -18 9 -25 20 -7 11 -19 20
-26 20 -8 0 -16 4 -18 8 -5 12 -107 77 -153 97 -22 10 -53 28 -70 40 -16 12
-45 30 -63 39 l-32 17 0 -1001 0 -1000 1883 2 c1035 1 1853 4 1817 8 l-65 6
70 7 c39 4 968 10 2065 13 1896 6 3088 0 3046 -16 -18 -6 -18 -7 5 -13 53 -14
146 -4 119 13 -8 5 7 14 36 25 293 105 437 220 544 439 65 132 83 223 78 390
-5 152 -19 208 -79 332 -87 176 -269 338 -449 398 -25 8 -63 20 -85 27 -32 11
-285 15 -1195 19 -1147 5 -1154 5 -1075 23 44 10 124 27 178 37 125 23 225 46
362 82 128 34 186 55 313 115 52 24 138 62 193 84 132 52 159 69 251 160 50
51 108 146 114 189 7 51 26 125 48 184 28 75 86 309 86 348 0 14 10 34 23 45
33 30 70 15 163 -65 78 -68 113 -92 133 -92 16 0 51 42 51 61 0 10 4 19 9 21
24 9 91 287 77 323 -2 7 -1 15 4 17 13 4 38 171 34 224 -4 55 -17 79 -41 79
-10 0 -19 7 -19 15 -1 8 -2 21 -3 28 0 8 -24 36 -52 64 -28 27 -47 53 -43 56
4 4 9 1 11 -5 3 -7 11 -13 19 -13 22 0 10 43 -15 56 -19 10 -20 12 -5 18 27
10 9 64 -37 109 -22 22 -33 37 -25 34 23 -9 20 7 -5 29 -32 29 -54 75 -39 84
9 5 9 9 1 14 -6 4 -11 12 -11 17 0 6 5 7 12 3 22 -14 0 70 -24 87 -31 24 -79
30 -99 13 -19 -17 -98 -18 -132 -3 -21 10 -24 17 -25 74 0 35 -5 72 -11 82 -5
11 -13 47 -17 82 -4 35 -13 82 -21 105 -7 23 -11 28 -7 11 3 -16 7 -64 9 -105
l3 -75 -8 60 c-21 149 -52 237 -97 270 -24 19 -29 19 -53 -7 -27 -30 -25 -35
12 -32 24 2 39 -5 56 -23 33 -36 12 -56 -24 -22 l-26 24 7 -26 c6 -22 2 -26
-30 -36 -23 -7 -47 -8 -67 -2 -18 5 -34 7 -36 4 -2 -2 14 -27 37 -56 61 -76
89 -143 112 -264 22 -113 21 -217 0 -238 -8 -8 -11 -7 -11 3 0 13 -2 13 -9 1
-6 -9 -10 1 -12 33 -3 34 -1 45 8 41 7 -2 13 -1 13 4 0 5 -8 11 -19 14 -14 3
-21 -3 -29 -29 -8 -26 -7 -31 4 -27 10 4 14 -3 14 -25 0 -44 -10 -67 -22 -50
-7 9 -8 5 -5 -14 5 -33 -18 -39 -28 -8 -9 28 -24 25 -36 -6 -7 -21 -6 -32 7
-51 11 -18 13 -28 5 -36 -8 -8 -11 -8 -11 0 0 6 -11 30 -23 52 l-24 42 1 -43
c0 -24 -4 -56 -8 -73 l-9 -30 -8 30 c-6 21 -4 36 6 52 19 28 19 33 0 33 -9 0
-15 -9 -15 -21 0 -12 -8 -29 -18 -38 -10 -9 -22 -31 -25 -50 -8 -40 -33 -72
-52 -65 -7 3 -15 -2 -18 -10 -4 -9 -16 -16 -27 -16 -11 0 -20 -7 -20 -15 0 -8
-5 -15 -11 -15 -5 0 -7 -5 -4 -10 5 -8 11 -8 20 0 9 8 15 8 20 0 3 -5 -2 -13
-12 -16 -43 -13 -86 -40 -93 -59 -5 -11 -9 -14 -9 -7 -1 7 -7 12 -13 11 -37
-4 -44 1 -40 31 4 29 -11 42 -21 18 -3 -8 -6 -5 -6 6 -1 11 -6 16 -15 13 -7
-3 -19 0 -25 6 -6 6 -11 8 -11 4 0 -4 -8 -3 -19 2 -15 9 -18 18 -13 58 5 44 4
47 -11 34 -10 -7 -17 -22 -17 -32 0 -11 -4 -19 -10 -19 -5 0 -10 -9 -10 -20 0
-11 5 -20 10 -20 6 0 8 -11 4 -25 -5 -19 -2 -25 10 -25 20 0 21 -26 0 -34 -8
-3 -12 -2 -9 4 10 15 -21 12 -34 -4 -9 -11 -9 -15 1 -19 10 -3 8 -10 -6 -26
-11 -11 -16 -24 -13 -27 3 -4 2 -16 -4 -26 -8 -14 -14 -17 -21 -10 -7 7 -18 2
-35 -18 -23 -27 -28 -29 -89 -25 -35 1 -71 8 -78 15 -16 12 -32 -3 -21 -20 4
-7 -2 -9 -17 -7 -12 2 -17 2 -10 0 13 -5 17 -23 5 -23 -5 0 -26 12 -48 25 -22
14 -49 25 -60 25 -37 0 -134 74 -215 164 -84 93 -82 89 -147 311 -35 120 -33
250 5 336 11 24 23 58 26 76 11 64 104 181 196 246 l25 18 -25 19 c-37 28
-140 43 -140 19 0 -5 -5 -7 -10 -4 -6 4 -8 15 -5 26 5 15 2 19 -16 17 -12 -2
-24 2 -26 8 -2 7 27 13 84 17 48 4 113 13 143 21 30 7 72 16 92 19 35 5 37 4
25 -14 -6 -10 -13 -15 -15 -9 -2 5 -10 3 -19 -5 -8 -8 -23 -15 -34 -15 -14 0
-19 -6 -17 -17 5 -28 53 -28 101 0 23 13 58 30 77 37 19 7 55 22 78 32 26 12
60 18 84 16 35 -2 42 1 54 25 8 15 19 27 24 27 6 0 10 6 10 13 0 6 25 34 55
60 58 51 65 66 40 87 -10 8 -13 21 -9 33 5 17 3 19 -22 13 -26 -6 -27 -5 -11
7 9 8 17 21 17 30 0 15 11 47 32 93 6 12 7 36 3 53 -4 19 -3 31 4 31 5 0 11
-12 13 -26 4 -33 34 -56 47 -35 5 7 7 39 5 70 -4 61 -21 148 -23 117z m-20
-30 c5 3 9 -2 9 -10 0 -9 -7 -16 -15 -16 -9 0 -15 9 -14 23 0 12 3 16 6 9 2
-6 9 -10 14 -6z m-741 -526 c0 -5 -2 -10 -4 -10 -3 0 -8 5 -11 10 -3 6 -1 10
4 10 6 0 11 -4 11 -10z m137 -56 c-3 -3 -12 -4 -19 -1 -8 3 -5 6 6 6 11 1 17
-2 13 -5z m-1730 -658 c33 -7 77 -43 97 -79 18 -32 57 -62 114 -88 18 -8 32
-19 32 -26 0 -20 34 -73 48 -73 6 0 12 -7 12 -15 0 -8 6 -15 14 -15 31 0 30
-195 -2 -251 -14 -25 -17 -41 -11 -57 13 -34 31 -16 25 24 -3 19 -2 34 3 34 5
0 11 10 13 23 2 12 8 20 13 17 6 -3 9 -9 7 -14 -2 -5 3 -4 11 3 13 10 13 18 2
55 -17 55 -7 68 17 24 15 -29 17 -30 18 -10 0 35 20 26 20 -10 0 -30 1 -31 16
-12 14 18 15 16 11 -26 -2 -25 -16 -70 -31 -101 -14 -31 -26 -63 -26 -72 0
-10 -7 -17 -15 -17 -8 0 -15 -7 -15 -16 0 -10 6 -14 15 -10 16 6 20 -11 6 -32
-6 -10 -11 -5 -21 17 -13 33 -46 42 -56 16 -4 -8 -10 -12 -15 -9 -5 3 -9 -3
-9 -14 0 -34 -14 -34 -43 0 -23 27 -27 29 -22 10 5 -17 1 -24 -16 -30 -15 -6
-18 -11 -11 -16 20 -12 14 -46 -8 -46 -16 0 -19 5 -17 23 2 12 2 16 0 10 -3
-7 -8 -13 -13 -13 -5 0 -7 -7 -4 -15 4 -8 1 -15 -5 -15 -6 0 -11 -7 -11 -15 0
-21 -30 -31 -41 -14 -6 10 -9 7 -9 -11 0 -19 -2 -22 -10 -10 -14 23 -22 6 -10
-24 13 -34 13 -56 0 -56 -5 0 -10 9 -10 20 0 30 -20 47 -49 43 -26 -3 -26 -3
-3 8 12 7 22 16 22 20 0 5 9 16 19 26 19 18 19 18 -4 18 -13 0 -21 -3 -19 -7
2 -4 -5 -9 -15 -13 -31 -10 -36 -43 -11 -70 13 -13 20 -31 17 -39 -3 -8 -1
-16 5 -18 7 -3 8 -10 3 -18 -6 -10 -10 -8 -16 8 -9 24 -27 30 -26 10 1 -31 -4
-48 -13 -48 -5 0 -10 6 -10 14 0 19 -28 25 -62 13 -34 -11 -27 -41 8 -33 12 3
26 2 29 -4 10 -15 -71 -12 -84 3 -6 8 -8 17 -4 20 3 4 1 7 -5 7 -7 0 -12 -5
-12 -11 0 -7 -10 -9 -25 -5 -16 4 -31 1 -40 -8 -16 -16 -95 -20 -95 -5 0 6 5
7 11 3 7 -4 10 -2 8 5 -3 7 -8 12 -12 12 -4 -1 -14 -1 -23 -1 -13 0 -14 -3 -5
-14 17 -20 1 -28 -75 -34 -48 -3 -64 -1 -64 8 0 10 -3 10 -15 0 -9 -8 -44 -14
-80 -14 -35 -1 -67 -4 -70 -8 -4 -4 8 -5 26 -2 42 6 61 -6 62 -40 1 -17 8 -26
19 -26 12 0 15 -5 11 -17 -4 -11 -3 -14 5 -9 7 4 12 1 12 -7 0 -7 11 -19 23
-24 36 -17 30 -40 -10 -37 -36 2 -42 -6 -18 -26 8 -7 15 -18 14 -24 0 -6 -3
-6 -6 2 -4 9 -8 10 -18 2 -11 -9 -13 -4 -11 25 3 33 1 36 -18 31 -20 -5 -21
-5 -2 9 11 8 15 15 8 15 -8 0 -9 7 -2 26 8 20 7 25 -2 21 -7 -3 -22 -8 -33
-12 -19 -6 -19 -6 -2 8 16 13 16 15 2 21 -9 3 -14 2 -12 -2 3 -4 -1 -13 -9
-20 -12 -11 -14 -10 -14 3 0 8 -5 15 -11 15 -5 0 -7 -6 -3 -12 3 -7 -13 7 -37
32 -24 25 -40 47 -36 48 4 2 3 10 -4 18 -6 7 -9 20 -6 27 3 9 -2 13 -15 13
-22 -1 -63 58 -53 75 4 5 -3 9 -13 9 -20 0 -36 -23 -24 -34 3 -4 7 -16 9 -28
3 -18 1 -19 -12 -8 -9 7 -19 10 -22 6 -4 -4 -3 -10 2 -14 6 -4 16 -20 23 -36
l13 -28 -35 4 c-19 2 -33 1 -30 -3 2 -4 -14 -9 -36 -13 -68 -11 -188 -76 -245
-132 -9 -9 -18 -14 -21 -11 -9 9 56 64 109 94 26 14 45 28 42 31 -14 14 -158
-89 -232 -166 -80 -83 -111 -105 -55 -40 68 79 155 157 207 185 42 22 53 32
40 36 -10 5 -14 3 -9 -5 5 -7 0 -9 -14 -6 -14 4 -20 2 -16 -4 4 -6 -1 -8 -14
-4 -31 10 -114 -39 -198 -117 -41 -38 -74 -65 -74 -59 0 16 130 132 185 164
28 17 43 28 35 25 -8 -2 -26 -8 -39 -12 -16 -5 -21 -4 -17 4 11 18 -3 13 -63
-21 -54 -31 -204 -172 -270 -253 -37 -45 -31 -28 8 25 84 114 194 212 284 255
45 22 47 23 22 29 -14 4 -33 2 -43 -3 -11 -7 -12 -11 -4 -11 18 0 4 -20 -14
-20 -8 0 -12 5 -9 11 11 16 -74 -30 -130 -71 -80 -59 -230 -227 -258 -287 -6
-13 -14 -23 -19 -23 -11 0 -10 27 1 34 5 4 35 40 66 82 81 107 172 191 267
247 45 26 78 47 73 47 -15 0 -148 -70 -168 -88 -15 -13 -20 -14 -27 -3 -6 11
-18 6 -54 -24 -60 -49 -151 -150 -179 -197 -22 -37 -37 -48 -37 -27 0 5 13 24
30 42 16 18 30 36 30 41 0 10 146 155 175 174 75 48 109 72 101 72 -28 0 -156
-91 -227 -161 -45 -44 -83 -78 -85 -76 -9 8 137 149 189 183 75 48 66 57 -11
10 -64 -40 -131 -101 -204 -186 -26 -30 -49 -52 -52 -49 -8 7 98 126 160 179
50 43 159 110 179 110 6 0 3 -5 -5 -10 -17 -11 -9 -13 15 -4 13 6 14 9 3 16
-9 7 -6 8 11 4 14 -3 30 -1 37 5 8 7 14 7 19 -1 3 -5 14 -10 23 -10 11 0 6 6
-12 15 -31 16 -50 20 -42 7 2 -4 -10 -8 -28 -8 -57 0 -180 -79 -285 -181 -52
-51 -99 -93 -105 -93 -6 0 34 44 90 98 65 63 124 111 170 135 38 21 58 35 44
31 -71 -18 -162 -84 -262 -189 -32 -33 -58 -54 -58 -47 0 8 24 37 53 66 116
115 243 194 291 181 20 -6 20 -5 2 6 -40 25 -211 -75 -314 -182 -22 -24 -44
-40 -48 -36 -14 14 157 158 231 195 67 33 124 47 137 34 17 -17 28 -15 28 4 0
8 4 13 9 9 5 -3 65 -8 133 -11 68 -3 142 -9 166 -14 30 -5 42 -4 39 4 -2 6
-17 10 -33 8 l-29 -3 30 25 c17 14 42 30 57 37 15 6 30 19 33 29 8 24 28 32
95 39 51 6 55 8 52 30 -1 14 2 28 8 31 6 4 12 51 14 106 4 110 14 173 29 192
10 13 3 27 -14 27 -5 0 -9 3 -9 8 0 4 0 13 0 20 0 7 10 23 23 37 12 14 21 33
19 42 -2 9 6 22 19 29 22 11 22 12 4 25 -10 8 -15 17 -12 21 4 3 14 -2 22 -13
14 -18 15 -18 39 11 14 17 25 38 26 47 0 9 14 30 30 46 17 17 30 35 30 41 0 5
18 17 40 27 22 10 40 21 40 26 0 4 4 8 10 8 5 0 26 11 46 25 20 14 55 30 78
36 22 6 55 19 72 29 17 10 47 21 65 24 26 5 29 4 13 -3 -22 -9 -41 -31 -29
-31 15 0 121 31 137 40 10 6 30 11 45 11 l28 1 -30 8 c-32 9 173 5 212 -4z
m3249 -31 c1 -10 9 -22 16 -26 9 -6 8 -9 -7 -10 l-20 0 20 -9 c18 -8 18 -9 2
-9 -10 -1 -15 -5 -12 -11 3 -5 -2 -10 -12 -10 -15 0 -16 -2 -3 -10 13 -8 13
-10 1 -10 -11 0 -9 -4 5 -16 18 -14 18 -15 -6 -9 -64 16 -66 16 -40 1 l25 -15
-25 -1 c-14 -1 -34 -5 -45 -9 -14 -6 -8 -8 22 -7 23 0 48 -5 55 -12 11 -11 8
-11 -15 -3 -37 14 -57 14 -37 0 12 -9 12 -10 -3 -5 -10 3 -37 8 -60 11 l-42 5
30 -15 30 -16 -32 5 c-37 6 -46 -10 -10 -17 12 -3 -5 -2 -38 1 -33 2 -62 6
-64 8 -1 1 1 15 6 30 5 15 53 63 113 114 93 78 107 87 124 76 11 -7 20 -21 22
-31z m69 15 c3 -5 1 -10 -4 -10 -6 0 -11 5 -11 10 0 6 2 10 4 10 3 0 8 -4 11
-10z m-2250 -100 c3 -5 1 -10 -4 -10 -6 0 -11 5 -11 10 0 6 2 10 4 10 3 0 8
-4 11 -10z m-1919 -68 c-23 -23 -31 -8 -9 17 10 13 19 17 22 10 2 -6 -4 -18
-13 -27z m1988 -46 c-3 -8 -1 -17 5 -21 19 -11 12 -35 -11 -36 -22 -1 -22 -1
2 -9 21 -7 22 -8 5 -9 -17 -1 -17 -3 -5 -11 12 -8 11 -10 -5 -10 -12 0 -26 -5
-33 -12 -9 -9 -12 -8 -12 5 0 9 -4 17 -10 17 -5 0 -10 7 -10 15 0 12 -4 13
-18 6 -11 -6 -38 -11 -60 -12 -27 -2 -42 -8 -42 -16 0 -7 -4 -13 -10 -13 -21
0 -9 -30 13 -32 12 0 28 -2 36 -2 8 -1 16 -7 19 -15 4 -11 6 -11 13 0 7 11 9
9 9 -5 0 -18 2 -17 28 6 21 20 35 25 62 22 28 -3 31 -2 15 5 -19 9 -19 10 2
10 12 1 24 7 27 14 2 6 4 1 3 -13 -1 -14 -11 -29 -22 -34 -18 -9 -18 -10 8
-14 21 -3 26 -7 18 -16 -8 -9 -7 -18 3 -32 14 -19 15 -19 22 0 7 19 40 56 49
56 2 0 2 -13 -1 -30 -8 -37 13 -42 22 -5 3 14 10 22 15 19 5 -3 7 -9 4 -14 -3
-5 3 -14 14 -19 28 -16 39 -13 17 4 -10 7 -15 19 -11 24 4 8 10 7 18 -2 35
-38 48 -89 25 -103 -7 -5 -8 -3 -3 6 5 8 3 11 -6 8 -8 -3 -15 -12 -17 -21 -2
-12 1 -15 12 -11 9 3 16 1 16 -6 0 -6 5 -8 10 -5 6 3 10 -1 10 -10 0 -9 7 -15
17 -13 13 2 19 -7 25 -37 5 -22 10 -47 12 -55 2 -8 -2 -18 -8 -22 -6 -4 -7
-10 -3 -14 3 -4 12 -2 19 3 20 15 48 23 48 14 0 -5 -9 -11 -20 -14 -27 -7 -25
-31 4 -45 20 -9 27 -7 40 7 18 20 21 37 6 44 -6 3 -5 4 1 3 19 -3 41 -77 34
-111 -21 -92 -23 -111 -13 -122 12 -15 2 -33 -18 -33 -14 0 -13 -2 0 -16 18
-17 21 -28 6 -19 -10 6 -55 -14 -47 -21 2 -3 40 4 83 16 43 11 82 20 88 20 24
0 -7 -12 -80 -31 -212 -54 -450 -135 -451 -152 0 -7 -4 -19 -8 -29 -5 -14 5
-13 77 8 153 45 473 125 503 126 17 0 61 16 98 34 84 42 93 43 40 4 -43 -32
-67 -67 -37 -56 9 3 28 9 42 12 l27 5 -25 -15 c-14 -8 -84 -33 -155 -57 -72
-23 -138 -50 -148 -60 -10 -11 -26 -19 -36 -19 -10 0 -58 -14 -107 -30 -49
-17 -96 -33 -104 -35 -8 -2 -46 -14 -85 -26 -38 -12 -78 -21 -87 -20 -10 1
-18 -3 -18 -9 0 -6 -4 -8 -10 -5 -5 3 -28 1 -50 -5 -50 -13 -262 -40 -305 -39
l-30 1 35 8 c19 4 96 22 170 40 74 18 164 38 200 46 36 8 81 20 100 28 19 7
125 39 235 70 110 31 219 64 242 72 38 14 41 17 28 31 -14 13 -31 11 -164 -21
-81 -20 -186 -48 -232 -62 -106 -33 -210 -64 -227 -68 -8 -1 -17 -7 -20 -13
-9 -14 -128 -55 -164 -56 -14 -1 -25 -4 -22 -8 2 -3 -31 -13 -74 -22 -42 -9
-108 -22 -147 -31 -125 -27 -306 -45 -515 -52 -113 -3 -202 -3 -199 0 3 3 36
7 74 7 37 1 62 5 56 9 -14 8 15 14 169 35 247 32 395 57 401 66 3 5 34 12 68
14 37 3 69 11 77 20 17 16 19 17 114 19 89 3 180 31 180 55 0 26 -17 30 -76
20 -109 -18 -200 -32 -224 -34 -14 -1 -43 -10 -64 -19 -22 -10 -50 -16 -63
-13 -14 3 -23 -1 -23 -8 0 -14 3 -13 -185 -60 -77 -19 -196 -41 -265 -50 -69
-8 -141 -18 -160 -21 l-35 -6 19 21 c23 26 75 40 266 75 80 15 213 40 295 56
303 59 362 70 441 79 44 6 143 31 220 56 l139 46 -62 -4 c-35 -2 -63 0 -63 5
0 4 -21 7 -47 7 l-48 -2 40 -6 c31 -5 13 -9 -85 -18 -126 -12 -190 -27 -190
-44 0 -5 -11 -9 -25 -9 -14 0 -42 -7 -61 -15 -19 -8 -38 -14 -42 -14 -4 1 -9
0 -12 -1 -8 -3 -43 -10 -75 -14 -16 -3 -30 -6 -30 -7 0 -1 -9 -3 -20 -4 -38
-5 -190 -44 -247 -63 -32 -11 -60 -17 -63 -14 -2 3 -2 16 1 28 4 17 2 24 -9
24 -8 0 -17 -6 -20 -14 -7 -16 -89 -32 -108 -21 -15 10 44 30 146 50 44 8 103
22 130 30 48 14 48 14 10 10 -91 -10 -145 -9 -145 4 0 9 49 25 77 26 6 0 15 4
19 8 4 4 18 7 31 7 12 0 23 4 23 9 0 5 -16 9 -35 8 -19 -1 -35 -5 -35 -9 0 -5
-6 -8 -14 -8 -24 0 -116 -33 -116 -42 0 -4 -11 -8 -25 -8 -14 0 -25 -4 -25
-10 0 -5 -7 -10 -15 -10 -17 0 -52 -18 -73 -37 -7 -7 -18 -13 -23 -13 -5 0
-43 -20 -83 -45 -41 -25 -80 -45 -86 -45 -6 0 -8 -5 -4 -11 4 -7 -2 -7 -17 1
-20 10 -22 10 -11 -1 16 -18 15 -32 -2 -26 -11 4 -13 1 -9 -11 6 -16 5 -16
-13 -1 -10 9 -26 19 -34 21 -10 4 1 13 30 25 25 11 59 31 75 45 17 13 54 39
83 57 37 24 50 37 43 44 -6 6 -11 16 -11 22 0 5 7 2 15 -9 9 -12 20 -16 32
-11 15 6 12 12 -26 46 -24 21 -39 39 -34 39 12 0 63 -38 80 -60 9 -11 15 -12
23 -4 11 11 1 23 -56 62 -17 11 -15 12 15 6 19 -3 44 -18 56 -32 14 -16 26
-22 35 -17 10 6 7 12 -11 26 -13 10 -19 19 -13 19 6 0 17 -7 24 -15 7 -8 21
-15 32 -15 18 0 19 2 7 17 -15 18 -15 18 35 -3 9 -3 16 4 20 19 4 19 11 24 31
22 14 -2 25 1 25 6 0 13 21 11 53 -6 28 -14 28 -14 25 13 -2 16 -12 31 -26 38
-12 6 -26 15 -30 19 -4 5 -2 6 3 3 16 -9 55 10 55 27 0 12 4 13 18 6 11 -6 24
-6 35 0 12 7 15 6 12 -4 -4 -8 10 -22 35 -36 22 -12 47 -35 55 -51 19 -36 19
-35 -5 -37 -11 -1 -20 4 -20 13 0 21 -26 17 -27 -5 -1 -12 5 -20 15 -20 9 0
40 -2 67 -4 28 -3 39 -3 25 0 -19 3 -30 15 -43 47 -10 24 -27 52 -38 62 -10 9
-19 23 -19 31 0 7 -4 13 -8 13 -4 0 -16 26 -27 58 -10 31 -27 77 -38 101 -10
24 -19 67 -20 97 -1 30 -5 50 -11 47 -5 -4 -6 7 -2 28 5 19 11 50 15 69 9 42
49 128 64 137 6 4 8 0 4 -10 -9 -24 0 -21 14 4 8 15 8 19 0 15 -22 -14 -10 14
20 49 31 35 64 46 72 23 3 -10 13 -9 41 5 43 20 63 22 69 5 3 -10 7 -10 18 -2
23 18 69 23 69 8 0 -8 9 -14 20 -14 22 0 26 -10 9 -27 -9 -9 -7 -11 8 -7 12 3
31 26 43 50 13 24 28 44 34 45 6 0 25 2 43 5 18 2 35 -1 38 -6 3 -6 15 -10 26
-10 10 0 19 -5 19 -11 0 -5 5 -7 10 -4 6 4 7 11 4 17 -4 6 1 17 11 25 24 17
36 17 29 -1z m2036 4 c18 -12 2 -12 -25 0 -13 6 -15 9 -5 9 8 0 22 -4 30 -9z
m-1842 -23 c5 -24 -15 -21 -21 4 -3 13 -1 19 6 16 7 -2 13 -11 15 -20z m-1033
3 c3 -5 1 -10 -4 -10 -6 0 -11 5 -11 10 0 6 2 10 4 10 3 0 8 -4 11 -10z m2700
2 l-30 -5 25 -7 c22 -7 20 -8 -12 -9 -36 -1 -47 7 -31 22 3 4 22 6 42 6 35 -2
35 -2 6 -7z m95 -12 c8 -5 11 -10 5 -10 -5 0 -17 5 -25 10 -8 5 -10 10 -5 10
6 0 17 -5 25 -10z m-100 -24 c0 -2 -18 -6 -39 -8 -22 -2 -37 0 -35 4 5 8 74
11 74 4z m-1690 -10 c0 -11 -19 -15 -25 -6 -3 5 1 10 9 10 9 0 16 -2 16 -4z
m1604 -38 c3 -18 2 -49 -3 -68 -9 -34 -9 -34 -10 17 -1 28 -4 58 -7 67 -3 9
-1 16 4 16 6 0 14 -15 16 -32z m171 12 c3 -6 -1 -7 -9 -4 -18 7 -21 14 -7 14
6 0 13 -4 16 -10z m310 0 c3 -6 -1 -7 -9 -4 -18 7 -21 14 -7 14 6 0 13 -4 16
-10z m-525 -45 c0 -8 -4 -15 -10 -15 -5 0 -10 7 -10 15 0 8 5 15 10 15 6 0 10
-7 10 -15z m-1480 -23 c0 -4 -9 -8 -20 -9 -11 -1 -18 2 -15 8 7 11 35 12 35 1z
m1439 1 c0 -5 -4 -17 -9 -28 -8 -18 -9 -17 -9 8 -1 15 4 27 9 27 6 0 10 -3 9
-7z m-52 -33 c-1 -22 -17 -28 -17 -7 0 12 9 27 16 27 2 0 2 -9 1 -20z m698 0
c3 -5 1 -10 -4 -10 -6 0 -11 5 -11 10 0 6 2 10 4 10 3 0 8 -4 11 -10z m-2035
-4 c0 -3 -4 -8 -10 -11 -5 -3 -10 -1 -10 4 0 6 5 11 10 11 6 0 10 -2 10 -4z
m-58 -30 c5 -37 3 -66 -5 -66 -5 0 -6 12 -3 26 5 18 2 32 -10 46 -16 17 -17
18 -1 12 9 -3 18 -11 19 -18z m1340 -3 c-3 -16 -7 -22 -10 -15 -4 13 4 42 11
42 2 0 2 -12 -1 -27z m-362 -39 c0 -8 -4 -14 -10 -14 -5 0 -10 9 -10 21 0 11
5 17 10 14 6 -3 10 -13 10 -21z m307 -19 c0 -19 -4 -35 -9 -35 -4 0 -8 16 -8
35 0 19 4 35 8 35 5 0 9 -16 9 -35z m864 18 c13 -16 12 -17 -3 -4 -10 7 -18
15 -18 17 0 8 8 3 21 -13z m-637 -40 c-4 -27 -7 -56 -6 -65 0 -10 -3 -18 -7
-18 -8 0 -5 61 5 108 8 41 15 22 8 -25z m-178 -5 c-4 -24 -8 -52 -8 -63 0 -63
-11 -115 -25 -115 -8 0 -12 4 -8 9 3 5 1 12 -5 16 -6 3 -13 -1 -16 -9 -3 -9
-14 -16 -23 -16 -14 0 -14 2 -1 10 8 5 11 10 5 10 -6 0 -9 21 -7 50 3 39 8 50
21 50 11 0 16 -8 16 -25 -1 -14 -5 -28 -8 -32 -12 -11 -8 -23 8 -23 10 0 15
10 15 29 0 16 5 42 11 58 6 15 11 43 11 61 0 17 5 32 10 32 7 0 8 -15 4 -42z
m-1306 2 c0 -5 -4 -10 -10 -10 -5 0 -10 5 -10 10 0 6 5 10 10 10 6 0 10 -4 10
-10z m152 -121 c7 -4 6 -9 -1 -13 -15 -10 -41 59 -40 108 1 39 2 38 16 -24 8
-36 20 -68 25 -71z m1045 89 c-3 -7 -5 -2 -5 12 0 14 2 19 5 13 2 -7 2 -19 0
-25z m898 22 c3 -5 2 -10 -4 -10 -5 0 -13 5 -16 10 -3 6 -2 10 4 10 5 0 13 -4
16 -10z m-851 -25 c-4 -8 -8 -15 -10 -15 -2 0 -4 7 -4 15 0 8 4 15 10 15 5 0
7 -7 4 -15z m941 5 c3 -5 1 -10 -4 -10 -6 0 -11 5 -11 10 0 6 2 10 4 10 3 0 8
-4 11 -10z m-1164 -84 c5 -6 9 2 9 22 0 29 3 32 30 32 17 0 30 5 31 13 0 6 5
2 11 -10 6 -13 15 -23 20 -23 5 0 7 4 4 9 -8 13 10 17 48 13 32 -4 33 -4 26
-48 -8 -54 -16 -63 -34 -38 -14 18 -15 18 -25 -8 -15 -40 -23 -35 -20 12 2 22
-1 40 -6 40 -6 0 -10 -9 -10 -19 -1 -10 -6 -25 -13 -33 -6 -8 -9 -18 -5 -21 3
-4 1 -7 -6 -7 -9 0 -12 15 -8 55 2 30 1 55 -4 55 -5 0 -10 -8 -11 -17 -3 -39
-5 -49 -13 -65 -10 -24 -25 -23 -25 2 0 11 -4 20 -10 20 -5 0 -10 -7 -10 -15
0 -8 -6 -15 -14 -15 -15 0 -14 15 7 85 l12 40 3 -35 c2 -19 8 -39 13 -44z
m-829 -40 c-5 -20 -5 -20 -13 0 -4 10 -7 39 -7 64 l0 45 12 -45 c7 -25 10 -54
8 -64z m771 47 c-3 -21 -9 -46 -14 -55 -5 -9 -9 -26 -9 -37 0 -12 -3 -21 -8
-21 -6 0 -8 83 -3 98 1 1 1 5 2 10 2 15 20 42 28 42 5 0 7 -17 4 -37z m378 20
c2 -38 -3 -78 -12 -87 -13 -14 -29 36 -17 51 6 7 8 22 5 33 -3 13 0 20 9 20 8
0 14 -8 15 -17z m-426 -15 c-15 -78 -29 -128 -36 -128 -7 0 -6 24 7 107 2 17
10 34 17 36 7 3 13 6 14 6 1 1 0 -9 -2 -21z m480 10 c-2 -7 -7 -31 -10 -52
-11 -78 -29 -60 -26 27 1 30 5 37 21 37 11 0 18 -5 15 -12z m36 -1 c-1 -4 -1
-27 -1 -52 0 -49 -17 -62 -22 -17 -4 40 3 83 14 80 5 -2 9 -7 9 -11z m-564
-38 c-7 -22 -16 -39 -22 -37 -12 4 -7 48 7 65 20 25 27 13 15 -28z m607 -3
c-1 -20 3 -36 7 -36 5 0 9 -5 9 -11 0 -5 -4 -7 -10 -4 -5 3 -10 0 -10 -7 -1
-9 -4 -8 -13 3 -16 21 -10 102 7 96 6 -2 10 -20 10 -41z m698 12 c-7 -7 -12
-40 -12 -77 -1 -104 -24 -231 -52 -287 -15 -27 -30 -67 -33 -88 -7 -32 -10
-36 -22 -24 -19 20 -7 102 14 94 15 -6 41 44 46 91 2 16 6 35 9 43 11 30 27
126 27 162 -1 63 12 121 24 109 8 -8 8 -14 -1 -23z m-1358 -34 c-9 -27 -17
-54 -18 -61 -6 -36 -14 -18 -13 26 2 32 9 58 20 72 27 30 30 18 11 -37z
m-3261 18 c-10 -11 -22 -17 -26 -14 -5 2 0 10 10 18 26 20 36 17 16 -4z m3177
-24 c-43 -17 -55 -26 -53 -36 1 -6 -5 -9 -15 -7 -9 1 -26 -3 -37 -10 -11 -6
-32 -15 -46 -18 -67 -17 -137 -59 -163 -97 -20 -31 -33 -40 -54 -40 -23 1 -25
2 -11 13 9 7 21 21 26 32 6 11 37 33 70 49 32 16 69 38 82 50 13 12 21 15 17
9 -4 -7 -3 -13 2 -13 6 0 12 7 16 15 3 8 10 15 16 15 6 0 8 -6 4 -12 -4 -7 2
-4 14 6 12 11 22 15 22 11 0 -4 9 0 20 10 11 10 20 15 20 12 0 -3 12 1 28 9
15 7 36 14 47 13 17 0 16 -2 -5 -11z m20 -18 c0 -5 -5 -10 -11 -10 -5 0 -7 5
-4 10 3 6 8 10 11 10 2 0 4 -4 4 -10z m240 -15 c0 -14 -4 -25 -10 -25 -11 0
-14 33 -3 43 11 11 13 8 13 -18z m-280 5 c0 -5 -5 -10 -11 -10 -5 0 -7 5 -4
10 3 6 8 10 11 10 2 0 4 -4 4 -10z m-516 -44 c-6 -25 -7 -25 -20 -9 -18 24
-18 36 0 30 11 -4 13 -1 9 11 -4 13 -3 14 6 6 7 -7 9 -22 5 -38z m653 24 c1
-11 -2 -20 -8 -20 -5 0 -9 9 -9 20 0 11 4 20 8 20 4 0 8 -9 9 -20z m-1973 -45
c3 -8 -4 -25 -15 -38 -10 -14 -19 -29 -19 -34 0 -5 -23 -22 -51 -38 -27 -17
-59 -43 -70 -60 -11 -16 -18 -23 -15 -15 2 8 10 33 17 55 13 39 31 65 44 65 4
0 5 -7 1 -15 -3 -9 0 -15 9 -15 8 0 15 5 15 10 0 6 7 10 17 8 18 -3 36 45 28
72 -6 20 31 24 39 5z m-1470 -19 c-3 -7 -15 -18 -27 -25 -12 -6 -35 -20 -52
-30 -16 -11 -37 -20 -45 -20 -10 0 -9 3 5 11 11 6 22 14 25 18 3 3 19 12 37
19 18 7 38 19 44 27 15 18 20 18 13 0z m-160 -69 c16 -12 16 -14 -9 -25 -15
-7 -24 -8 -20 -2 3 5 -1 10 -11 10 -13 0 -14 3 -4 15 15 18 21 19 44 2z m2967
-14 c-8 -15 -10 -15 -11 -2 0 17 10 32 18 25 2 -3 -1 -13 -7 -23z m-71 -3 c0
-5 -4 -10 -10 -10 -5 0 -10 5 -10 10 0 6 5 10 10 10 6 0 10 -4 10 -10z m795
-10 c14 -15 15 -20 4 -20 -15 1 -49 23 -49 34 0 13 28 5 45 -14z m-3639 -5
c-22 -16 -57 -21 -40 -6 7 8 29 15 54 20 3 0 -4 -6 -14 -14z m523 -109 c9 -10
8 -16 -3 -26 -20 -16 -35 -5 -29 20 6 23 16 25 32 6z m821 -46 c-8 -5 -3 -14
14 -28 15 -11 23 -23 19 -25 -5 -3 -25 10 -45 28 l-36 34 30 -1 c16 -1 24 -4
18 -8z m1990 0 c0 -5 -6 -10 -12 -11 -35 -2 -64 -11 -78 -24 -9 -8 -24 -15
-32 -15 -9 0 -32 -7 -53 -16 -29 -12 -40 -13 -49 -3 -8 9 -8 10 3 4 7 -4 16
-2 21 4 4 7 47 25 96 41 104 33 104 33 104 20z m-3293 -6 c-3 -3 -12 -4 -19
-1 -8 3 -5 6 6 6 11 1 17 -2 13 -5z m-1009 -47 c82 -40 73 -47 -12 -8 -53 24
-66 27 -66 15 0 -24 -25 -10 -28 15 -3 20 0 22 20 16 13 -4 51 -21 86 -38z
m125 16 c-7 -2 -21 -2 -30 0 -10 3 -4 5 12 5 17 0 24 -2 18 -5z m797 -11 c-13
-9 -50 -38 -82 -64 -60 -51 -84 -62 -52 -27 26 29 135 109 149 108 5 0 -1 -8
-15 -17z m109 4 c-2 -2 -31 -24 -64 -48 -82 -61 -159 -143 -253 -270 -31 -43
-60 -78 -65 -78 -7 0 15 39 40 70 7 8 34 43 61 76 110 139 231 251 271 253 8
1 12 -1 10 -3z m55 -37 c-32 -22 -83 -64 -113 -92 -37 -35 -47 -42 -33 -22 38
56 158 153 191 154 8 1 -12 -17 -45 -40z m3441 22 c-3 -6 -23 -11 -43 -10
l-37 1 33 8 c18 4 36 10 39 14 9 9 16 -1 8 -13z m-4620 -21 c-3 -5 -12 -10
-18 -10 -7 0 -6 4 3 10 19 12 23 12 15 0z m61 -35 c14 -25 32 -45 39 -45 7 0
18 -7 25 -15 11 -13 8 -15 -14 -15 -31 0 -55 19 -48 38 2 7 -5 12 -18 12 -19
0 -50 21 -50 33 0 3 9 3 20 0 22 -6 26 7 8 25 -9 9 -9 12 0 12 6 0 23 -20 38
-45z m341 29 c-3 -3 -12 -4 -19 -1 -8 3 -5 6 6 6 11 1 17 -2 13 -5z m3729 -14
c0 -11 -7 -22 -14 -25 -9 -3 -12 0 -9 9 4 10 1 13 -9 9 -8 -3 -13 -11 -11 -17
7 -18 -415 -117 -486 -115 -24 0 -10 5 218 67 83 23 182 52 220 65 89 31 91
31 91 7z m-3286 0 c0 -5 -4 -10 -8 -10 -21 0 -222 -228 -222 -251 0 -5 -4 -9
-10 -9 -18 0 -11 14 31 65 22 28 54 67 71 88 37 46 120 127 131 127 4 0 7 -4
7 -10z m-640 -21 c0 -6 -4 -7 -10 -4 -5 3 -10 11 -10 16 0 6 5 7 10 4 6 -3 10
-11 10 -16z m4335 1 c-16 -4 -43 -8 -60 -8 -29 1 -29 1 5 8 19 4 46 7 60 8 22
0 22 -1 -5 -8z m-4212 -41 c23 -12 87 -74 87 -84 0 -12 -18 -3 -50 25 -18 17
-41 30 -49 31 -13 0 -13 2 -2 6 10 4 8 9 -10 19 -29 16 -7 19 24 3z m501 -51
c-22 -24 -52 -60 -68 -80 -16 -21 -33 -38 -40 -38 -8 0 -8 2 0 8 6 4 13 13 15
19 8 24 104 132 118 132 7 1 -4 -18 -25 -41z m323 20 c-13 -13 -30 -34 -40
-47 -9 -14 -20 -22 -24 -18 -7 7 65 87 79 87 4 0 -3 -10 -15 -22z m773 -38
c14 -18 34 -36 44 -40 19 -6 18 -7 -2 -12 -12 -4 -20 -3 -17 1 7 13 -43 51
-68 51 -17 0 -19 2 -8 9 13 8 13 12 0 27 -13 16 -12 16 6 6 12 -6 32 -25 45
-42z m3000 46 c0 -2 -13 -9 -30 -15 -35 -12 -41 -5 -7 9 25 10 37 12 37 6z
m-884 -21 c-22 -16 -54 -19 -83 -7 -13 5 -6 9 27 13 75 10 77 10 56 -6z m574
-2 c0 -10 -73 -45 -86 -42 -5 1 -16 0 -24 -3 -48 -17 -132 -39 -136 -35 -8 8
61 36 146 60 102 29 100 29 100 20z m-3660 -30 c0 -5 -12 -22 -28 -38 -34 -38
-108 -135 -151 -198 -34 -51 -56 -60 -25 -10 10 15 21 30 24 33 3 3 18 23 35
45 16 22 33 45 37 50 5 6 17 21 28 35 24 30 74 88 78 89 1 1 2 -2 2 -6z m6
-58 c-25 -31 -50 -64 -55 -73 -5 -9 -13 -13 -17 -9 -4 4 6 22 22 40 17 17 43
49 58 70 15 21 30 36 33 33 3 -3 -16 -30 -41 -61z m3034 55 c-8 -5 -19 -10
-25 -10 -5 0 -3 5 5 10 8 5 20 10 25 10 6 0 3 -5 -5 -10z m-2110 -10 c-20 -13
-33 -13 -25 0 3 6 14 10 23 10 15 0 15 -2 2 -10z m-1303 -24 c-8 -9 -17 -21
-20 -28 -2 -7 -8 -10 -12 -5 -5 4 2 18 15 32 13 14 25 23 28 20 2 -2 -3 -11
-11 -19z m-412 -16 c6 0 11 -6 13 -14 2 -10 -3 -13 -17 -9 -15 4 -21 13 -20
32 0 21 2 22 8 8 4 -10 11 -18 16 -17z m4450 20 c3 -5 -1 -10 -10 -10 -9 0
-14 -4 -11 -9 5 -8 -29 -20 -74 -26 -8 -1 -22 -5 -30 -8 -8 -3 -26 -7 -40 -10
-14 -2 -58 -14 -97 -25 -42 -12 -75 -17 -78 -11 -4 5 0 9 9 9 8 0 16 4 18 9 3
10 183 63 211 63 10 -1 32 6 50 13 39 17 44 18 52 5z m-3633 -132 c-50 -67
-101 -134 -114 -148 -13 -13 -22 -26 -21 -27 7 -8 -11 -33 -24 -33 -14 0 13
42 104 160 23 30 63 84 88 118 26 35 49 62 51 59 3 -3 -35 -61 -84 -129z
m1261 120 c5 -17 -33 -50 -49 -44 -9 3 -11 -1 -7 -11 5 -13 1 -15 -20 -9 -16
4 -29 1 -33 -6 -5 -7 -2 -9 9 -5 21 8 30 -18 11 -34 -12 -10 -13 -9 -8 6 6 15
4 15 -14 4 -11 -7 -23 -27 -27 -45 -3 -18 -12 -35 -21 -38 -8 -3 -13 -10 -10
-15 8 -13 -21 -22 -52 -16 -20 4 -22 3 -8 -3 17 -7 16 -10 -9 -40 -30 -36 -45
-41 -45 -14 0 14 -2 15 -10 2 -6 -9 -5 -17 2 -21 13 -8 8 -18 -52 -89 -18 -22
-20 -22 -11 -3 14 27 14 33 0 33 -5 0 -8 -4 -4 -9 7 -13 -8 -21 -23 -13 -7 5
9 30 47 71 32 36 62 61 69 57 6 -3 13 -2 17 4 3 5 1 10 -5 10 -12 0 24 55 53
82 11 10 16 22 11 30 -4 7 -4 10 1 6 4 -4 17 -2 29 4 11 7 25 11 29 10 5 -1 6
2 3 7 -6 9 60 71 76 71 4 0 8 -5 8 -12 0 -6 3 -8 6 -5 4 4 1 13 -6 22 -15 18
0 20 19 3 11 -11 13 -10 8 5 -4 9 -2 17 2 17 5 0 11 -6 14 -12z m-1250 -30
c-22 -37 -109 -148 -115 -148 -5 0 7 20 25 43 17 24 46 62 62 84 28 38 48 52
28 21z m1007 13 c0 -5 -6 -11 -12 -14 -23 -7 13 -39 39 -34 23 4 29 -8 15 -31
-6 -9 -20 -1 -53 29 -24 23 -38 39 -31 35 7 -4 12 -1 12 8 0 9 7 16 15 16 8 0
15 -4 15 -9z m2087 -32 c-8 -13 -60 -30 -180 -59 -93 -23 -171 -40 -173 -37
-8 8 178 89 192 83 8 -3 14 -2 14 2 0 4 14 8 30 9 16 1 49 11 72 21 46 20 65
12 45 -19z m-3647 1 c35 -18 60 -40 45 -40 -10 0 -105 50 -105 55 0 10 22 4
60 -15z m1485 10 c3 -5 1 -10 -4 -10 -6 0 -11 5 -11 10 0 6 2 10 4 10 3 0 8
-4 11 -10z m100 0 c3 -5 1 -10 -4 -10 -6 0 -11 5 -11 10 0 6 2 10 4 10 3 0 8
-4 11 -10z m1450 -5 c-54 -20 -77 -19 -51 0 11 8 36 15 55 15 l36 -1 -40 -14z
m-3241 -26 c-10 -4 -28 -8 -39 -7 -15 0 -13 3 10 13 17 7 34 10 39 7 5 -3 1
-9 -10 -13z m476 4 c0 -5 -11 -21 -25 -37 -14 -16 -25 -33 -25 -38 0 -4 -5 -8
-11 -8 -14 0 -9 10 25 54 30 37 36 42 36 29z m4340 3 c0 -2 -7 -7 -16 -10 -8
-3 -12 -2 -9 4 6 10 25 14 25 6z m-4307 -23 c-8 -25 -24 -43 -35 -43 -5 0 0
14 12 30 24 34 32 38 23 13z m2001 -3 c7 -7 2 -10 -15 -10 -14 0 -29 -4 -34
-8 -11 -9 -78 22 -68 32 10 9 105 -2 117 -14z m113 14 c-3 -3 -12 -4 -19 -1
-8 3 -5 6 6 6 11 1 17 -2 13 -5z m890 0 c-3 -3 -12 -4 -19 -1 -8 3 -5 6 6 6
11 1 17 -2 13 -5z m384 -1 c-11 -5 -11 -7 0 -15 11 -7 9 -8 -5 -4 -12 4 -23 0
-31 -11 -8 -11 -26 -17 -49 -17 -20 0 -36 -3 -36 -7 0 -3 -10 -6 -23 -6 -13 0
-71 -17 -131 -37 -105 -36 -222 -59 -201 -39 16 16 91 40 240 79 77 20 160 42
185 49 45 13 77 18 51 8z m-3647 -25 c53 -29 50 -27 43 -34 -6 -6 -97 42 -97
51 0 9 12 5 54 -17z m1501 12 c3 -5 2 -10 -4 -10 -5 0 -13 5 -16 10 -3 6 -2
10 4 10 5 0 13 -4 16 -10z m-1748 -6 c-3 -3 -12 -4 -19 -1 -8 3 -5 6 6 6 11 1
17 -2 13 -5z m2953 -13 c-14 -8 -98 -36 -284 -96 -66 -21 -95 -25 -185 -23
-98 2 -100 2 -26 5 47 3 82 9 87 16 6 9 8 9 8 0 0 -7 35 3 88 24 127 51 170
64 237 72 89 12 93 12 75 2z m107 3 c-3 -3 -12 -4 -19 -1 -8 3 -5 6 6 6 11 1
17 -2 13 -5z m381 -11 c16 -16 16 -16 0 -10 -10 3 -18 2 -18 -3 0 -5 -7 -6
-17 -3 -12 5 -14 3 -8 -8 4 -8 5 -11 0 -7 -4 4 -13 3 -20 -2 -6 -5 -42 -21
-79 -35 -68 -26 -122 -33 -111 -15 3 6 -2 10 -12 11 -19 1 21 13 96 29 24 6
67 21 95 34 28 13 52 25 54 25 2 1 11 -7 20 -16z m42 13 c0 -3 -4 -8 -10 -11
-5 -3 -10 -1 -10 4 0 6 5 11 10 11 6 0 10 -2 10 -4z m-2840 -10 c0 -2 -7 -9
-15 -16 -13 -11 -14 -10 -9 4 5 14 24 23 24 12z m1688 -3 c-10 -2 -26 -2 -35
0 -10 3 -2 5 17 5 19 0 27 -2 18 -5z m75 0 c-7 -2 -21 -2 -30 0 -10 3 -4 5 12
5 17 0 24 -2 18 -5z m870 -3 c25 -1 -39 -29 -66 -30 -24 0 -26 2 -15 13 18 18
40 26 56 21 8 -2 19 -4 25 -4z m1113 -6 c-23 -13 -26 -18 -15 -26 10 -7 8 -8
-9 -5 -13 3 -21 3 -18 0 4 -5 -185 -69 -212 -73 -1 0 2 8 7 18 11 21 80 52
176 80 86 24 109 26 71 6z m-4366 -4 c0 -5 -4 -10 -10 -10 -5 0 -10 5 -10 10
0 6 5 10 10 10 6 0 10 -4 10 -10z m434 -34 c-6 -16 -24 -23 -24 -8 0 10 22 33
27 28 2 -2 1 -11 -3 -20z m1801 16 c-17 -15 -323 -97 -331 -89 -2 2 37 14 88
27 51 13 112 31 136 41 23 10 42 15 42 12 0 -4 5 -2 12 5 7 7 23 12 37 12 14
0 21 -4 16 -8z m675 4 c0 -7 -125 -63 -175 -78 -152 -47 -273 -70 -260 -48 3
5 18 10 32 10 36 0 364 98 380 113 7 7 23 10 23 3z m-2320 -10 c0 -3 -4 -8
-10 -11 -5 -3 -10 -1 -10 4 0 6 5 11 10 11 6 0 10 -2 10 -4z m1772 -11 c-48
-34 -132 -59 -117 -35 4 7 -3 8 -22 4 -15 -4 -25 -4 -22 0 7 7 141 43 169 45
9 1 6 -5 -8 -14z m708 4 c-41 -5 -84 -11 -94 -13 -11 -3 -15 -1 -10 4 11 10
59 17 129 17 39 0 34 -1 -25 -8z m-2606 -33 c-6 -16 -24 -23 -24 -8 0 10 22
33 27 28 2 -2 1 -11 -3 -20z m3907 -5 c-7 -12 -29 -25 -54 -31 -23 -6 -90 -25
-149 -41 -72 -20 -113 -27 -124 -21 -13 7 -11 11 13 21 42 17 317 99 321 96 2
-2 -1 -13 -7 -24z m-4331 -11 c0 -10 6 -21 13 -23 6 -3 2 -6 -10 -6 -15 -1
-23 -7 -23 -18 -1 -17 -1 -17 -11 0 -7 13 -7 26 2 47 14 31 29 31 29 0z m502
-15 c-15 -24 -33 -45 -40 -45 -15 0 -9 12 28 59 37 45 43 38 12 -14z m2585 39
c-3 -3 -12 -4 -19 -1 -8 3 -5 6 6 6 11 1 17 -2 13 -5z m-2517 -14 c0 -5 -5
-10 -11 -10 -5 0 -7 5 -4 10 3 6 8 10 11 10 2 0 4 -4 4 -10z m1577 -6 c-3 -3
-12 -4 -19 -1 -8 3 -5 6 6 6 11 1 17 -2 13 -5z m1679 -9 c-10 -7 -15 -18 -12
-24 9 -14 -1 -18 -101 -46 -48 -13 -101 -29 -118 -34 -75 -23 -75 -23 -68 -5
8 21 111 68 183 83 30 7 66 18 80 26 34 19 62 20 36 0z m-743 -2 c-13 -2 -33
-2 -45 0 -13 2 -3 4 22 4 25 0 35 -2 23 -4z m-2554 -40 c-29 -50 -39 -60 -39
-43 0 17 42 80 53 80 5 0 -1 -17 -14 -37z m2376 26 c-22 -4 -51 -8 -65 -7 -35
1 34 15 75 16 25 0 23 -2 -10 -9z m-2654 -25 c28 -14 49 -28 46 -31 -7 -6 -93
32 -101 46 -10 16 -1 14 55 -15z m1987 19 c-10 -2 -26 -2 -35 0 -10 3 -2 5 17
5 19 0 27 -2 18 -5z m791 -17 c-2 -2 -105 -36 -228 -75 -193 -61 -233 -71
-290 -69 -60 1 -61 2 -16 5 36 3 54 10 66 25 9 12 36 27 60 34 122 35 164 49
169 55 9 12 100 27 174 28 38 0 67 -1 65 -3z m136 -4 c-19 -17 -174 -73 -339
-122 -93 -28 -172 -53 -176 -55 -17 -11 -129 -14 -170 -6 -42 9 -41 10 20 6
45 -4 59 -2 45 4 -19 9 -19 10 2 10 24 1 290 76 428 121 129 42 210 60 190 42z
m1615 -7 c0 -6 -103 -36 -108 -31 -2 2 18 11 45 19 56 17 63 19 63 12z m-4715
-24 c-29 -17 -55 -18 -55 -1 0 9 27 16 65 19 16 1 14 -3 -10 -18z m3793 10
c18 -11 -26 -39 -87 -57 -25 -7 -86 -24 -136 -39 -162 -46 -278 -75 -283 -70
-3 3 1 5 8 5 7 0 47 16 89 37 42 20 146 58 231 84 181 55 162 51 178 40z
m-3549 -35 c24 -13 40 -26 35 -29 -12 -7 -89 26 -98 42 -11 17 15 12 63 -13z
m1926 -15 c-86 -30 -170 -47 -161 -33 3 5 24 15 48 22 24 8 52 20 63 27 11 7
44 13 75 12 l55 0 -80 -28z m-1750 9 c17 -8 16 -9 -10 -9 -16 0 -43 -3 -60 -7
-21 -4 -27 -3 -20 4 8 8 31 15 65 20 3 0 14 -3 25 -8z m1910 -11 c-386 -137
-434 -151 -420 -129 3 6 14 10 25 10 10 0 21 7 24 16 3 9 13 14 21 10 8 -3 20
1 27 8 11 10 189 81 248 99 8 2 40 4 70 4 l55 0 -50 -18z m1019 6 c-10 -8 -23
-14 -29 -14 -5 0 -1 6 9 14 11 8 24 15 30 15 5 0 1 -7 -10 -15z m-144 -15 c0
-10 -14 -14 -39 -11 -7 2 -10 -2 -7 -8 7 -10 -121 -28 -131 -17 -4 3 10 6 31
6 23 0 45 7 58 20 23 21 88 28 88 10z m1080 -5 c0 -8 -6 -15 -14 -15 -8 0 -16
-6 -19 -14 -7 -17 -137 -42 -163 -32 -16 6 -14 9 12 25 16 10 30 15 32 11 2
-4 23 -2 47 5 24 8 46 11 49 8 3 -4 6 -1 6 5 0 9 15 17 43 21 4 0 7 -6 7 -14z
m-2818 -61 c-12 -8 -22 -22 -22 -30 0 -8 -6 -17 -14 -20 -8 -3 -19 -18 -26
-34 -11 -26 -40 -49 -40 -32 0 14 111 144 118 138 3 -4 -4 -13 -16 -22z m1477
22 c-2 -2 -33 -6 -69 -9 -41 -4 -56 -3 -40 3 25 8 117 14 109 6z m249 -13
c-16 -2 -28 -9 -28 -14 0 -6 10 -8 23 -4 19 5 20 5 4 -5 -22 -14 -40 -9 -43
13 -2 14 5 17 34 16 31 -2 32 -3 10 -6z m-938 -7 c0 -2 -15 -6 -34 -8 -19 -2
-32 0 -30 4 5 8 64 12 64 4z m-809 -136 c-31 -60 -57 -107 -59 -106 -1 2 17
45 42 97 24 52 47 105 51 118 5 16 10 20 15 11 5 -8 -15 -55 -49 -120z m2159
99 c0 -5 -4 -9 -10 -9 -5 0 -10 7 -10 16 0 8 5 12 10 9 6 -3 10 -10 10 -16z
m-1256 -4 c-4 -8 -14 -15 -23 -15 -14 1 -13 3 3 15 25 19 27 19 20 0z m1136
11 c0 -2 -9 -6 -20 -9 -11 -3 -18 -1 -14 4 5 9 34 13 34 5z m333 -13 c-5 -12
-3 -14 8 -9 8 4 5 0 -6 -9 -11 -9 -29 -18 -40 -20 -11 -2 -38 -9 -60 -14 l-40
-11 45 5 c25 3 61 8 80 12 32 6 34 5 21 -10 -11 -14 -11 -17 0 -18 42 -2 -136
-50 -269 -74 -116 -20 -120 -20 -88 10 25 23 75 42 171 64 50 11 15 13 -42 2
-49 -9 -53 -4 -20 26 14 13 42 22 77 26 30 3 73 12 95 20 57 21 76 21 68 0z
m-1516 1 c-3 -3 -12 -4 -19 -1 -8 3 -5 6 6 6 11 1 17 -2 13 -5z m-1971 -52
c-4 -3 -14 2 -24 12 -16 18 -16 18 6 6 13 -6 21 -14 18 -18z m2663 24 c-9 -9
-372 -126 -391 -126 -10 0 -16 5 -13 10 3 6 1 10 -4 10 -27 0 -7 18 27 24 46
9 127 33 168 52 18 8 49 18 70 23 40 9 151 14 143 7z m178 -3 c-13 -13 -442
-161 -492 -170 -16 -3 -32 -9 -35 -14 -7 -10 -50 0 -50 11 0 8 20 17 115 49
33 11 105 36 160 56 55 20 132 45 170 55 69 19 144 26 132 13z m-3074 -23 c3
-11 3 -20 1 -20 -2 0 -8 9 -14 20 -6 11 -7 20 -2 20 6 0 12 -9 15 -20z m47 4
c0 -14 -3 -14 -15 -4 -8 7 -15 14 -15 16 0 2 7 4 15 4 8 0 15 -7 15 -16z
m2145 -2 c-6 -5 -26 -15 -45 -22 -19 -7 -42 -19 -50 -25 -20 -16 -181 -77
-187 -72 -2 3 17 13 44 23 26 10 86 37 132 61 76 39 131 57 106 35z m-1941
-42 c19 -19 0 -18 -42 0 -53 24 -57 47 -4 25 20 -9 41 -20 46 -25z m246 16 c0
-2 -7 -7 -16 -10 -8 -3 -12 -2 -9 4 6 10 25 14 25 6z m1723 -26 c-3 -11 -20
-24 -42 -31 -31 -10 -135 -54 -251 -106 -21 -10 -35 -12 -38 -5 -1 5 -13 8
-25 6 -19 -4 -19 -3 3 8 129 62 326 146 347 147 6 1 9 -7 6 -19z m1097 -10
c-19 -16 -40 -30 -45 -30 -12 0 -36 -17 -91 -64 -29 -24 -40 -27 -72 -22 -63
12 -103 16 -206 23 -58 3 -93 9 -84 14 8 4 85 3 172 -3 104 -8 160 -8 164 -2
4 6 34 25 67 43 33 19 71 42 84 52 39 31 49 21 11 -11z m655 20 c-3 -5 -16
-10 -28 -9 -20 1 -20 2 3 9 14 4 26 8 28 9 2 1 0 -3 -3 -9z m-2721 -30 c-10
-16 -24 -32 -31 -34 -7 -3 -3 10 10 29 27 42 45 47 21 5z m1105 25 c-9 -8 -78
-12 -73 -4 3 5 21 9 41 9 20 0 34 -2 32 -5z m860 -9 c13 -15 -4 -26 -39 -26
-10 0 -20 -7 -24 -15 -3 -8 -12 -15 -21 -15 -8 0 -15 -3 -15 -7 0 -10 -202 -4
-212 5 -4 4 30 6 76 4 73 -3 89 0 139 24 32 14 60 30 63 35 8 13 20 11 33 -5z
m-2914 -6 c3 -5 1 -10 -4 -10 -6 0 -11 5 -11 10 0 6 2 10 4 10 3 0 8 -4 11
-10z m3444 -42 c1 -5 -3 -8 -9 -8 -5 0 -10 12 -9 28 0 24 1 25 9 7 5 -11 9
-23 9 -27z m-881 -5 c-10 -2 -26 -2 -35 0 -10 3 -2 5 17 5 19 0 27 -2 18 -5z
m842 -13 c0 -5 -6 -10 -14 -10 -8 0 -23 -3 -33 -6 -10 -3 -7 2 7 10 30 18 40
20 40 6z m-3125 -10 c15 -7 10 -9 -22 -9 -24 -1 -43 4 -43 9 0 12 37 12 65 0z
m617 -19 c-22 -22 -27 -19 -12 8 6 12 15 19 20 16 5 -3 2 -14 -8 -24z m2438
10 c0 -5 -30 -13 -67 -19 -38 -6 -76 -13 -85 -17 -12 -5 -18 -3 -18 6 0 7 3 9
7 6 3 -4 16 -1 28 7 30 20 135 33 135 17z m-2364 -58 c-8 -15 -15 -25 -16 -21
0 12 23 58 27 54 3 -2 -2 -17 -11 -33z m1182 30 c-16 -2 -40 -2 -55 0 -16 2
-3 4 27 4 30 0 43 -2 28 -4z m395 0 c-24 -2 -62 -2 -85 0 -24 2 -5 4 42 4 47
0 66 -2 43 -4z m595 -5 c-3 -7 -13 -15 -23 -16 -15 -4 -16 -2 -4 12 17 19 32
21 27 4z m764 -10 c-7 -7 -12 -8 -12 -2 0 14 12 26 19 19 2 -3 -1 -11 -7 -17z
m-1229 5 c-13 -2 -35 -2 -50 0 -16 2 -5 4 22 4 28 0 40 -2 28 -4z m-123 -37
c110 -10 150 -17 150 -26 0 -5 32 -6 71 -3 58 5 71 3 67 -8 -4 -13 -72 -31
-112 -30 -11 0 -27 -4 -37 -9 -12 -7 -22 -6 -33 5 -19 19 -30 19 -22 0 3 -8 1
-15 -4 -15 -6 0 -10 4 -10 9 0 5 -33 11 -72 14 -40 3 -86 8 -103 11 -16 4 -40
9 -52 12 -16 3 -23 12 -23 29 0 26 3 27 180 11z m-730 -16 c0 -11 4 -20 9 -20
6 0 8 8 6 18 -3 15 3 19 31 20 19 1 34 -3 34 -8 0 -5 -8 -7 -17 -3 -15 5 -16
3 -5 -8 10 -11 15 -11 28 3 11 11 25 14 47 8 18 -3 67 -5 110 -3 60 3 77 1 72
-8 -6 -9 1 -10 26 -5 74 14 79 14 79 2 0 -10 -48 -14 -192 -19 -106 -4 -217
-9 -246 -11 -28 -2 -54 0 -57 4 -6 9 19 20 47 20 14 0 18 5 14 15 -3 8 -1 15
4 15 6 0 10 -9 10 -20z m517 -26 c-3 -3 -12 -4 -19 -1 -8 3 -5 6 6 6 11 1 17
-2 13 -5z m551 -24 c7 -11 8 -20 3 -20 -6 0 -13 5 -17 11 -5 8 -9 8 -14 -1 -4
-6 -18 -10 -31 -8 -24 3 -24 4 6 20 39 21 38 21 53 -2z m-2078 -20 c0 -5 -4
-10 -10 -10 -5 0 -10 5 -10 10 0 6 5 10 10 10 6 0 10 -4 10 -10z m1297 4 c-3
-3 -12 -4 -19 -1 -8 3 -5 6 6 6 11 1 17 -2 13 -5z m-140 -10 c-3 -3 -12 -4
-19 -1 -8 3 -5 6 6 6 11 1 17 -2 13 -5z m922 -36 c-22 -19 -23 -19 -30 -1 -4
10 -8 12 -8 6 -1 -19 -48 -16 -48 2 0 10 4 12 12 5 7 -5 15 -6 21 -1 12 12 46
18 63 12 11 -3 8 -9 -10 -23z m576 22 c-3 -5 -11 -10 -16 -10 -6 0 -7 5 -4 10
3 6 11 10 16 10 6 0 7 -4 4 -10z m-685 -4 c0 -3 -4 -8 -10 -11 -5 -3 -10 -1
-10 4 0 6 5 11 10 11 6 0 10 -2 10 -4z m-2031 -43 c-12 -21 -23 -39 -25 -41
-1 -2 -4 1 -7 5 -5 9 39 73 50 73 2 0 -6 -17 -18 -37z m1609 -7 c-7 -8 -15
-12 -17 -11 -5 6 10 25 20 25 5 0 4 -6 -3 -14z m-4268 -306 c0 -5 -4 -10 -10
-10 -5 0 -10 5 -10 10 0 6 5 10 10 10 6 0 10 -4 10 -10z m45 0 c-3 -5 -16 -15
-28 -21 -22 -12 -22 -12 -3 10 19 21 43 30 31 11z m1165 -7 c-1 -11 -26 -43
-34 -43 -8 0 -8 35 1 43 9 9 33 9 33 0z m-752 -69 c19 -13 22 -24 22 -75 0
-69 -12 -99 -40 -99 -17 0 -20 -7 -20 -40 0 -33 -3 -40 -20 -40 -19 0 -20 7
-20 135 l0 135 28 0 c15 0 38 -7 50 -16z m142 -4 c0 -13 -7 -20 -20 -20 -17 0
-20 -7 -20 -40 0 -33 3 -40 20 -40 11 0 20 -7 20 -15 0 -8 -9 -15 -20 -15 -17
0 -20 -7 -20 -45 0 -34 3 -43 14 -39 8 3 19 -3 26 -15 10 -20 8 -21 -35 -21
l-45 0 0 135 0 135 40 0 c33 0 40 -3 40 -20z m128 8 c6 -7 12 -31 14 -53 2
-34 0 -40 -17 -40 -15 0 -21 8 -23 33 -2 17 -7 32 -13 32 -5 0 -9 -45 -9 -100
0 -60 4 -100 10 -100 6 0 10 18 10 40 0 33 4 40 19 40 26 0 33 -25 21 -71 -7
-25 -17 -39 -27 -39 -12 0 -13 -3 -3 -15 15 -18 5 -35 -20 -35 -24 0 -35 17
-14 22 13 2 11 8 -10 31 -24 26 -26 34 -26 128 0 55 5 109 10 120 12 22 62 26
78 7z m142 4 c0 -4 7 -62 15 -127 8 -66 15 -123 15 -127 0 -5 -9 -8 -20 -8
-13 0 -20 7 -20 20 0 13 -7 20 -20 20 -13 0 -20 -7 -20 -20 0 -13 -7 -20 -20
-20 -11 0 -20 3 -20 8 0 4 7 61 15 127 8 65 15 123 15 127 0 4 14 8 30 8 17 0
30 -4 30 -8z m220 -115 c0 -82 -4 -127 -12 -135 -18 -18 -68 -15 -68 3 0 8 9
15 20 15 19 0 20 7 20 100 0 93 -1 100 -20 100 -19 0 -27 20 -13 33 3 4 21 7
40 7 l33 0 0 -123z m137 28 c6 -49 14 -109 17 -132 5 -37 3 -43 -13 -43 -10 0
-21 9 -24 20 -3 11 -12 20 -21 20 -9 0 -16 -8 -16 -20 0 -13 -7 -20 -20 -20
-23 0 -24 6 -10 121 19 156 18 151 48 147 26 -3 27 -6 39 -93z m227 79 c12
-12 16 -38 16 -115 0 -115 -8 -139 -49 -139 -47 0 -56 22 -56 135 0 110 9 135
51 135 12 0 30 -7 38 -16z m224 4 c11 -11 18 -88 8 -88 -20 0 -36 16 -36 36 0
13 -4 24 -10 24 -5 0 -10 -13 -10 -29 0 -22 8 -36 30 -51 29 -21 31 -25 28
-84 l-3 -61 -35 -3 c-41 -4 -60 16 -60 64 0 27 4 32 20 31 16 -1 20 -8 20 -34
0 -18 5 -33 10 -33 6 0 10 17 10 38 0 29 -7 43 -30 64 -52 45 -36 138 24 138
12 0 27 -5 34 -12z m140 -10 c2 -11 -5 -18 -19 -20 -31 -4 -39 -67 -9 -75 23
-6 27 -33 6 -33 -17 0 -27 -26 -21 -55 2 -11 4 -23 4 -27 1 -5 10 -8 21 -8 11
0 20 -7 20 -15 0 -11 -12 -15 -44 -15 l-44 0 0 127 c0 70 2 131 5 136 9 15 78
3 81 -15z m82 -98 c0 -73 4 -120 10 -120 6 0 10 47 10 120 0 113 1 120 20 120
19 0 20 -7 20 -123 0 -132 -5 -147 -50 -147 -45 0 -50 15 -50 147 0 116 1 123
20 123 19 0 20 -7 20 -120z m138 42 c2 -14 -2 -22 -12 -22 -19 0 -29 17 -22
36 8 22 30 12 34 -14z m4752 -98 c169 -81 273 -277 241 -457 -54 -307 -396
-461 -657 -296 -51 33 -48 33 -181 13 -38 -6 -43 -4 -43 12 0 11 13 44 30 74
30 56 37 89 21 106 -27 30 -39 172 -20 253 23 102 99 214 176 262 91 57 141
70 258 67 99 -3 116 -6 175 -34z m-4750 -74 c0 -21 -24 -28 -35 -10 -8 14 3
30 21 30 8 0 14 -9 14 -20z m-900 -210 c0 -11 -4 -20 -10 -20 -6 0 -10 -58
-10 -154 0 -93 4 -157 10 -161 16 -10 12 -45 -5 -45 -8 0 -24 9 -35 20 -18 18
-20 33 -20 178 0 126 3 162 16 180 19 28 54 30 54 2z m444 -2 c13 -18 16 -53
16 -176 0 -150 0 -153 -25 -178 -14 -14 -30 -22 -35 -19 -13 8 -13 45 0 45 6
0 10 56 10 149 0 89 -4 152 -10 156 -5 3 -10 15 -10 26 0 27 35 25 54 -3z
m2026 2 c0 -11 -4 -20 -10 -20 -6 0 -10 -58 -10 -155 0 -97 4 -155 10 -155 6
0 10 -12 10 -26 0 -22 -3 -24 -22 -19 -44 13 -48 30 -48 201 0 134 3 165 16
178 22 23 54 20 54 -4z m444 -2 c13 -18 16 -52 16 -164 0 -160 -9 -200 -46
-207 -32 -6 -43 17 -20 42 13 14 16 43 16 160 0 106 -3 143 -13 147 -7 2 -13
13 -14 24 -2 28 41 27 61 -2z m-2225 2 c20 0 31 -60 31 -161 0 -132 -7 -149
-59 -149 -31 0 -40 5 -49 25 -20 43 -15 65 13 65 20 0 25 -5 25 -25 0 -14 5
-25 10 -25 6 0 10 20 10 44 0 38 -3 43 -19 39 -31 -8 -51 23 -51 82 0 85 23
122 68 109 8 -2 17 -4 21 -4z m179 -14 c9 -9 13 -49 13 -141 0 -140 -6 -157
-55 -157 -37 0 -56 19 -56 58 0 27 4 34 19 34 12 0 21 -8 23 -22 2 -12 9 -23
16 -26 8 -2 12 10 12 42 0 35 -3 44 -14 40 -8 -3 -24 -1 -35 6 -18 9 -21 20
-21 85 0 65 3 76 22 89 23 17 53 13 76 -8z m829 2 c7 -6 11 -54 12 -143 0
-129 -1 -136 -22 -149 -12 -8 -34 -12 -49 -9 -34 7 -53 57 -44 117 4 22 8 72
9 111 2 62 4 71 26 81 24 12 45 9 68 -8z m1054 -95 c-10 -57 -16 -103 -14
-103 1 0 6 0 10 0 4 0 7 12 8 27 0 21 5 29 23 31 19 3 22 -1 22 -32 0 -20 5
-36 10 -36 6 0 10 -9 10 -20 0 -11 -4 -20 -10 -20 -5 0 -10 -11 -10 -25 0 -20
-5 -25 -24 -25 -19 0 -22 4 -18 25 4 23 2 25 -37 25 -47 0 -46 -5 -26 109 9
47 18 100 21 118 4 30 29 48 46 34 3 -3 -2 -52 -11 -108z m318 100 c20 -17 22
-29 24 -144 2 -141 -4 -159 -57 -159 -41 0 -56 16 -56 57 0 26 4 33 20 33 15
0 20 -7 20 -26 0 -43 25 -22 28 24 3 34 0 41 -12 36 -8 -3 -24 -1 -35 6 -18 9
-21 20 -21 83 0 75 5 90 30 100 26 10 37 8 59 -10z m171 -3 c18 -18 20 -33 20
-144 0 -140 -7 -156 -65 -156 -38 0 -55 20 -55 64 0 21 5 26 25 26 20 0 25 -5
25 -25 0 -14 5 -25 10 -25 6 0 10 20 10 44 0 38 -3 43 -19 39 -34 -9 -51 23
-51 93 0 69 20 104 60 104 11 0 29 -9 40 -20z m173 -3 c4 -7 6 -40 5 -74 -2
-34 1 -65 5 -69 12 -12 8 -119 -6 -138 -15 -20 -70 -25 -91 -7 -12 10 -15 40
-14 147 0 126 2 135 22 150 22 16 65 11 79 -9z m835 7 c30 -21 29 -88 -3 -179
-31 -86 -31 -85 0 -85 18 0 25 -5 25 -20 0 -18 -7 -20 -60 -20 -72 0 -73 3
-28 98 33 70 50 172 29 172 -6 0 -11 -13 -11 -30 0 -25 -4 -30 -25 -30 -18 0
-25 5 -25 19 0 33 21 80 38 84 30 8 37 7 60 -9z m-4128 -6 c0 -7 -7 -51 -15
-98 -18 -101 -18 -110 -5 -110 6 0 10 16 10 35 0 28 4 35 20 35 15 0 20 -7 20
-28 0 -15 5 -33 12 -40 18 -18 -9 -92 -34 -92 -13 0 -18 7 -18 25 0 22 -4 25
-35 25 -42 0 -43 6 -20 131 24 129 24 129 45 129 11 0 20 -6 20 -12z m170 -5
c0 -19 -16 -128 -26 -175 -3 -17 -1 -28 5 -28 6 0 11 16 11 36 0 31 3 35 23
32 16 -2 23 -11 25 -33 2 -16 8 -35 12 -40 5 -6 5 -17 0 -25 -6 -8 -10 -25
-10 -37 0 -18 -6 -23 -25 -23 -20 0 -25 5 -25 25 0 22 -4 25 -35 25 -20 0 -35
5 -35 12 0 11 26 174 36 226 5 27 44 31 44 5z m759 -20 c0 -21 -10 -90 -22
-153 -20 -103 -25 -115 -45 -118 -27 -4 -27 -3 -2 128 23 119 24 140 10 140
-5 0 -10 -11 -10 -25 0 -20 -5 -25 -25 -25 -23 0 -25 4 -25 45 l0 45 60 0 60
0 -1 -37z m121 15 c-1 -13 -7 -59 -15 -103 -17 -96 -17 -95 -6 -95 6 0 11 15
13 33 2 24 8 32 23 32 15 0 21 -8 23 -30 2 -16 9 -36 14 -43 8 -9 8 -16 0 -24
-7 -7 -12 -22 -12 -35 0 -18 -6 -23 -25 -23 -20 0 -25 5 -25 25 0 22 -4 25
-35 25 -41 0 -40 -5 -19 119 24 145 22 141 44 141 14 0 20 -7 20 -22z m217 -5
c-3 -16 -15 -85 -28 -155 -22 -121 -24 -128 -46 -128 -27 0 -27 -3 3 143 16
80 18 127 4 127 -5 0 -10 -12 -10 -26 0 -21 -4 -25 -22 -22 -19 2 -24 10 -26
46 l-3 42 67 0 67 0 -6 -27z m143 12 c7 -9 11 -39 9 -77 -1 -35 1 -75 6 -91 4
-15 4 -47 1 -71 -6 -37 -12 -46 -35 -54 -46 -16 -75 4 -79 56 -3 36 0 42 17
42 14 0 21 -8 23 -27 6 -49 28 -39 28 12 0 38 -4 48 -20 52 -11 3 -20 13 -20
23 0 10 9 20 20 23 16 4 20 14 20 46 0 30 -4 41 -15 41 -10 0 -15 -10 -15 -30
0 -23 -4 -30 -20 -30 -16 0 -20 7 -20 38 0 21 5 43 12 50 17 17 73 15 88 -3z
m290 -140 c0 -148 -1 -155 -20 -155 -19 0 -20 7 -20 119 0 96 -3 120 -15 125
-8 3 -15 11 -15 17 0 18 32 48 53 48 15 1 17 -13 17 -154z m130 143 c0 -7 -7
-49 -15 -93 -17 -96 -18 -115 -5 -115 6 0 10 16 10 35 0 28 4 35 20 35 15 0
20 -7 20 -29 0 -17 5 -33 10 -36 14 -8 13 -45 -1 -45 -7 0 -9 -10 -7 -25 4
-21 1 -25 -18 -25 -19 0 -24 5 -24 25 0 22 -4 25 -35 25 -30 0 -35 3 -35 23 0
24 27 190 36 220 6 19 44 24 44 5z m640 -12 c0 -13 -7 -60 -15 -103 -18 -93
-18 -93 -5 -93 6 0 10 16 10 35 0 31 3 35 25 35 22 0 25 -4 25 -33 0 -18 5
-38 12 -45 9 -9 9 -15 0 -24 -7 -7 -12 -22 -12 -35 0 -18 -6 -23 -25 -23 -20
0 -25 5 -25 25 0 22 -4 25 -35 25 -41 0 -41 -1 -20 125 23 133 23 135 45 135
14 0 20 -7 20 -24z m960 0 c0 -13 -7 -60 -15 -103 -18 -92 -18 -93 -6 -93 6 0
11 15 13 33 2 24 8 33 26 35 19 3 22 -1 22 -30 0 -19 5 -39 12 -46 9 -9 9 -15
0 -24 -7 -7 -12 -22 -12 -35 0 -18 -6 -23 -25 -23 -20 0 -25 5 -25 25 0 22 -4
25 -35 25 -41 0 -41 -1 -20 125 23 133 23 135 45 135 14 0 20 -7 20 -24z m176
7 c-4 -15 -14 -80 -29 -180 -1 -6 2 -12 8 -12 5 -1 9 11 10 26 0 21 5 29 23
31 19 3 22 -1 22 -32 0 -20 5 -36 10 -36 6 0 10 -9 10 -20 0 -11 -4 -20 -10
-20 -5 0 -10 -11 -10 -25 0 -20 -5 -25 -24 -25 -19 0 -22 4 -18 25 4 23 2 25
-37 25 -47 0 -46 -5 -26 109 9 47 18 101 21 119 4 26 9 32 30 32 19 0 24 -4
20 -17z m170 -15 c-3 -18 -10 -60 -16 -92 -13 -75 -13 -96 0 -96 6 0 10 16 10
35 0 28 4 35 20 35 16 0 20 -7 20 -35 0 -19 5 -35 10 -35 6 0 10 -9 10 -20 0
-11 -4 -20 -10 -20 -5 0 -10 -11 -10 -25 0 -18 -5 -25 -20 -25 -15 0 -20 7
-20 25 0 22 -4 25 -36 25 l-37 0 6 64 c3 35 11 93 18 130 11 59 15 66 36 66
21 0 23 -3 19 -32z m204 12 c0 -16 -7 -20 -30 -20 -28 0 -30 -3 -30 -35 0 -31
3 -35 25 -35 33 0 45 -27 45 -104 0 -75 -14 -96 -65 -96 -24 0 -38 6 -45 19
-12 24 -13 78 -1 85 19 12 41 -7 41 -35 0 -16 5 -29 10 -29 6 0 10 26 10 59
l0 60 -35 -6 -35 -6 0 82 0 81 55 0 c48 0 55 -2 55 -20z m295 -7 c-3 -16 -11
-63 -19 -106 -7 -42 -10 -79 -6 -82 4 -3 11 11 14 30 5 26 12 35 26 35 16 0
20 -7 20 -35 0 -19 5 -35 10 -35 6 0 10 -9 10 -20 0 -11 -4 -20 -10 -20 -5 0
-10 -11 -10 -25 0 -20 -5 -25 -25 -25 -20 0 -25 5 -25 25 0 22 -4 25 -36 25
l-37 0 7 43 c4 23 14 81 23 130 14 80 17 87 39 87 20 0 23 -4 19 -27z m-2145
-162 c0 -15 -9 -18 -49 -17 -53 1 -66 8 -59 28 4 9 21 12 57 10 41 -3 51 -7
51 -21z"/>
<path d="M4617 3926 c-34 -12 -35 -26 -3 -26 30 0 76 17 76 27 0 11 -41 10
-73 -1z"/>
<path d="M4540 3895 c-20 -24 -6 -28 15 -5 10 11 13 20 8 20 -6 0 -16 -7 -23
-15z"/>
<path d="M4505 3850 c4 -6 11 -8 16 -5 14 9 11 15 -7 15 -8 0 -12 -5 -9 -10z"/>
<path d="M5380 3620 c0 -11 7 -20 15 -20 13 0 14 4 5 20 -6 11 -13 20 -15 20
-3 0 -5 -9 -5 -20z"/>
<path d="M5436 3617 c3 -10 9 -15 12 -12 3 3 0 11 -7 18 -10 9 -11 8 -5 -6z"/>
<path d="M4305 3559 c-4 -6 -5 -12 -2 -15 7 -7 37 7 37 17 0 13 -27 11 -35 -2z"/>
<path d="M5337 3553 c-12 -12 -7 -30 8 -30 8 0 15 9 15 19 0 18 -11 24 -23 11z"/>
<path d="M5370 3545 c0 -18 19 -40 26 -32 4 4 0 15 -9 24 -9 10 -17 13 -17 8z"/>
<path d="M4337 3516 c-4 -10 -5 -21 -2 -24 9 -9 17 6 13 25 -3 17 -4 17 -11
-1z"/>
<path d="M5395 3410 c-3 -5 -1 -10 4 -10 6 0 11 5 11 10 0 6 -2 10 -4 10 -3 0
-8 -4 -11 -10z"/>
<path d="M4310 3389 c0 -5 5 -7 10 -4 6 3 10 8 10 11 0 2 -4 4 -10 4 -5 0 -10
-5 -10 -11z"/>
<path d="M4607 3383 c-4 -3 -7 -11 -7 -17 0 -6 5 -5 12 2 6 6 9 14 7 17 -3 3
-9 2 -12 -2z"/>
<path d="M5391 3324 c0 -11 3 -14 6 -6 3 7 2 16 -1 19 -3 4 -6 -2 -5 -13z"/>
<path d="M5244 3275 c-8 -20 4 -34 15 -16 5 7 11 12 15 12 14 -2 6 14 -9 17
-8 2 -18 -4 -21 -13z"/>
<path d="M4788 3214 c-9 -14 7 -50 16 -36 4 7 3 19 -2 28 -5 9 -12 13 -14 8z"/>
<path d="M4550 3168 c0 -7 5 -20 10 -28 8 -13 10 -12 10 3 0 9 0 20 1 24 0 4
-4 9 -10 11 -6 2 -11 -2 -11 -10z"/>
<path d="M4245 3076 c10 -14 22 -26 27 -26 13 0 -15 43 -31 48 -9 3 -7 -5 4
-22z"/>
<path d="M4520 3050 c-8 -5 -10 -10 -4 -10 6 0 16 -11 22 -25 16 -35 67 -30
87 8 13 26 13 27 -9 27 -13 0 -36 2 -52 5 -16 3 -36 1 -44 -5z"/>
<path d="M4108 2973 c7 -3 16 -2 19 1 4 3 -2 6 -13 5 -11 0 -14 -3 -6 -6z"/>
<path d="M4160 2970 c0 -5 5 -10 11 -10 5 0 7 5 4 10 -3 6 -8 10 -11 10 -2 0
-4 -4 -4 -10z"/>
<path d="M3990 2960 c13 -8 12 -10 -4 -10 -11 0 -17 -2 -14 -5 3 -4 18 -3 34
1 25 6 26 8 9 15 -28 11 -43 10 -25 -1z"/>
<path d="M3652 2924 c-24 -14 -41 -28 -38 -31 3 -3 27 8 53 26 58 37 46 41
-15 5z"/>
<path d="M4600 2817 c0 -15 35 -16 47 -2 5 4 2 5 -4 1 -7 -4 -13 -2 -13 3 0 6
-7 11 -15 11 -8 0 -15 -6 -15 -13z"/>
<path d="M8323 3943 c9 -2 23 -2 30 0 6 3 -1 5 -18 5 -16 0 -22 -2 -12 -5z"/>
<path d="M8308 3923 c7 -3 16 -2 19 1 4 3 -2 6 -13 5 -11 0 -14 -3 -6 -6z"/>
<path d="M8258 3863 c7 -3 16 -2 19 1 4 3 -2 6 -13 5 -11 0 -14 -3 -6 -6z"/>
<path d="M8148 3813 c7 -3 16 -2 19 1 4 3 -2 6 -13 5 -11 0 -14 -3 -6 -6z"/>
<path d="M6182 3578 c-18 -18 -14 -28 8 -28 11 0 20 6 20 14 0 21 -15 27 -28
14z"/>
<path d="M6260 3560 c0 -5 5 -10 10 -10 6 0 10 5 10 10 0 6 -4 10 -10 10 -5 0
-10 -4 -10 -10z"/>
<path d="M6330 3560 c0 -12 8 -12 35 0 18 8 17 9 -7 9 -16 1 -28 -3 -28 -9z"/>
<path d="M6310 3533 c0 -5 11 -8 24 -8 13 0 22 3 19 8 -2 4 -13 7 -24 7 -10 0
-19 -3 -19 -7z"/>
<path d="M5975 3440 c-8 -13 5 -13 25 0 13 8 13 10 -2 10 -9 0 -20 -4 -23 -10z"/>
<path d="M6407 3424 c-16 -16 -6 -34 19 -34 19 0 25 5 22 17 -3 19 -29 29 -41
17z"/>
<path d="M6516 3375 c-3 -8 -1 -15 4 -15 6 0 10 7 10 15 0 8 -2 15 -4 15 -2 0
-6 -7 -10 -15z"/>
<path d="M6365 3239 c-4 -6 -5 -13 -2 -16 7 -7 27 6 27 18 0 12 -17 12 -25 -2z"/>
<path d="M6610 3230 c0 -5 5 -10 10 -10 6 0 10 5 10 10 0 6 -4 10 -10 10 -5 0
-10 -4 -10 -10z"/>
<path d="M6590 3180 c0 -5 5 -10 10 -10 6 0 10 5 10 10 0 6 -4 10 -10 10 -5 0
-10 -4 -10 -10z"/>
<path d="M6542 3138 c-7 -9 -10 -23 -6 -32 5 -12 2 -15 -10 -10 -9 3 -16 2
-16 -4 0 -22 13 -42 27 -42 8 0 11 -4 8 -10 -9 -15 17 -12 38 4 16 12 17 18 6
37 -9 17 -9 24 0 27 6 2 11 8 11 14 0 5 -9 7 -19 3 -13 -4 -20 -1 -23 11 -3
15 -4 15 -16 2z"/>
<path d="M6162 3133 c-9 -3 -5 -13 13 -30 27 -28 33 -53 13 -54 -7 0 -3 -5 10
-11 18 -9 25 -7 41 10 10 12 25 22 32 22 9 0 10 3 3 8 -6 4 -14 15 -17 26 -6
14 -14 17 -34 13 -16 -3 -32 0 -38 8 -5 7 -16 11 -23 8z"/>
<path d="M6495 3130 c-3 -5 1 -10 10 -10 9 0 13 5 10 10 -3 6 -8 10 -10 10 -2
0 -7 -4 -10 -10z"/>
<path d="M5718 3124 c-3 -3 -3 -17 1 -32 5 -18 15 -27 29 -28 23 -1 26 6 16
44 -6 20 -33 30 -46 16z"/>
<path d="M5612 3041 c-11 -7 -10 -10 3 -15 23 -9 25 -8 25 9 0 17 -9 19 -28 6z"/>
<path d="M5667 3019 c6 -23 9 -24 16 -5 3 8 0 17 -7 19 -10 4 -12 -1 -9 -14z"/>
<path d="M6500 3020 c0 -5 15 -10 33 -10 24 0 28 3 17 10 -20 13 -50 13 -50 0z"/>
<path d="M6188 2983 c6 -2 18 -2 25 0 6 3 1 5 -13 5 -14 0 -19 -2 -12 -5z"/>
<path d="M5468 2953 c7 -3 16 -2 19 1 4 3 -2 6 -13 5 -11 0 -14 -3 -6 -6z"/>
<path d="M5318 2643 c7 -3 16 -2 19 1 4 3 -2 6 -13 5 -11 0 -14 -3 -6 -6z"/>
<path d="M7688 3413 c7 -3 16 -2 19 1 4 3 -2 6 -13 5 -11 0 -14 -3 -6 -6z"/>
<path d="M7680 3385 c0 -8 5 -15 10 -15 6 0 10 7 10 15 0 8 -4 15 -10 15 -5 0
-10 -7 -10 -15z"/>
<path d="M3750 3140 c0 -5 5 -10 11 -10 5 0 7 5 4 10 -3 6 -8 10 -11 10 -2 0
-4 -4 -4 -10z"/>
<path d="M6815 2570 c-13 -6 -15 -9 -5 -9 8 0 22 4 30 9 18 12 2 12 -25 0z"/>
<path d="M5318 2323 c7 -3 16 -2 19 1 4 3 -2 6 -13 5 -11 0 -14 -3 -6 -6z"/>
<path d="M2050 1339 c0 -37 4 -58 10 -54 6 3 10 31 10 61 0 30 -4 54 -10 54
-6 0 -10 -27 -10 -61z"/>
<path d="M2467 1313 c-11 -10 -8 -63 3 -63 6 0 10 16 10 35 0 36 -2 40 -13 28z"/>
<path d="M2810 1292 c0 -23 5 -42 10 -42 7 0 8 14 4 38 -9 51 -14 53 -14 4z"/>
<path d="M3040 1300 c0 -60 4 -100 10 -100 6 0 10 40 10 100 0 60 -4 100 -10
100 -6 0 -10 -40 -10 -100z"/>
<path d="M8120 1256 c-181 -48 -311 -249 -281 -435 5 -33 14 -68 19 -77 9 -16
11 -15 21 4 12 22 41 30 41 12 0 -6 -21 -51 -46 -101 -25 -50 -44 -92 -42 -94
2 -2 41 3 88 11 112 18 140 18 140 -1 0 -9 -9 -15 -25 -15 -42 0 -28 -20 33
-48 45 -21 76 -27 144 -30 150 -7 267 50 350 168 180 259 -8 621 -322 619 -41
0 -95 -6 -120 -13z m10 -177 c39 -54 48 -104 27 -142 -24 -40 -6 -71 74 -130
45 -34 72 -34 97 -2 11 14 30 25 41 25 28 0 90 -26 113 -47 24 -21 23 -74 -2
-105 -87 -111 -327 -19 -455 175 -61 93 -60 198 3 247 39 32 68 26 102 -21z"/>
<path d="M8036 1061 c-23 -25 -31 -82 -17 -124 41 -123 235 -277 348 -277 36
0 50 6 75 30 16 16 28 38 26 47 -2 10 -25 29 -52 42 l-48 24 -25 -31 c-27 -35
-50 -39 -96 -17 -58 27 -147 122 -147 156 0 7 10 23 21 35 24 26 22 49 -11
102 -22 36 -49 41 -74 13z"/>
<path d="M3420 885 c0 -30 5 -55 10 -55 6 0 10 25 10 55 0 30 -4 55 -10 55 -5
0 -10 -25 -10 -55z"/>
<path d="M3582 888 c4 -67 22 -65 26 2 2 40 0 50 -13 50 -13 0 -15 -10 -13
-52z"/>
<path d="M4410 900 c0 -29 4 -40 13 -37 6 2 12 19 12 37 0 18 -6 35 -12 38 -9
2 -13 -9 -13 -38z"/>
<path d="M4417 814 c-4 -4 -7 -29 -7 -56 0 -59 23 -63 28 -5 3 38 -9 73 -21
61z"/>
<path d="M5792 888 c4 -67 22 -65 26 2 2 40 0 50 -13 50 -13 0 -15 -10 -13
-52z"/>
<path d="M5960 885 c0 -30 5 -55 10 -55 6 0 10 25 10 55 0 30 -4 55 -10 55 -5
0 -10 -25 -10 -55z"/>
<path d="M6130 906 c0 -25 5 -46 10 -46 6 0 10 18 10 39 0 22 -4 43 -10 46 -6
4 -10 -12 -10 -39z"/>
<path d="M6130 766 c0 -31 5 -56 10 -56 6 0 10 22 10 49 0 28 -4 53 -10 56 -6
4 -10 -15 -10 -49z"/>
<path d="M6266 5285 c-3 -9 0 -15 9 -15 16 0 20 16 6 24 -5 3 -11 -1 -15 -9z"/>
<path d="M7276 5223 c-6 -14 -5 -15 5 -6 7 7 10 15 7 18 -3 3 -9 -2 -12 -12z"/>
<path d="M7240 5195 c-8 -9 -8 -15 -2 -15 12 0 26 19 19 26 -2 2 -10 -2 -17
-11z"/>
<path d="M0 4985 c0 -117 6 -126 53 -77 15 15 40 38 57 52 36 31 40 69 8 90
-21 13 -93 39 -110 40 -5 0 -8 -47 -8 -105z"/>
<path d="M1761 5080 c0 -8 4 -22 9 -30 12 -18 12 -2 0 25 -6 13 -9 15 -9 5z"/>
<path d="M7605 5010 c-3 -5 -1 -10 4 -10 6 0 11 5 11 10 0 6 -2 10 -4 10 -3 0
-8 -4 -11 -10z"/>
<path d="M7580 4961 c0 -9 24 -21 41 -21 6 0 7 5 4 10 -4 6 -11 8 -16 5 -5 -4
-9 -1 -9 4 0 6 -4 11 -10 11 -5 0 -10 -4 -10 -9z"/>
<path d="M7185 4884 c-16 -19 -31 -36 -33 -38 -2 -2 8 -3 22 -2 16 0 26 7 26
16 0 9 7 26 16 38 23 34 3 24 -31 -14z"/>
<path d="M7640 4840 c0 -5 4 -10 9 -10 6 0 13 5 16 10 3 6 -1 10 -9 10 -9 0
-16 -4 -16 -10z"/>
<path d="M7678 4824 c-10 -9 10 -44 25 -44 8 0 8 3 -1 9 -8 4 -13 11 -12 15 3
13 -6 27 -12 20z"/>
<path d="M6838 4803 c7 -3 16 -2 19 1 4 3 -2 6 -13 5 -11 0 -14 -3 -6 -6z"/>
<path d="M0 4565 c0 -118 2 -215 4 -215 2 0 29 11 60 25 31 14 65 25 75 25 10
0 21 6 24 14 3 8 21 17 39 21 18 4 49 15 68 25 19 10 62 26 95 35 93 26 115
36 115 54 0 13 2 13 9 2 5 -8 7 5 3 35 -3 27 -12 55 -21 61 -36 29 -122 74
-143 76 -13 2 -32 8 -43 14 -39 22 -181 33 -208 16 -5 -3 -12 -1 -16 4 -3 6
-18 13 -33 17 l-28 6 0 -215z"/>
<path d="M6880 4760 c0 -6 7 -10 15 -10 8 0 15 2 15 4 0 2 -7 6 -15 10 -8 3
-15 1 -15 -4z"/>
<path d="M7875 4750 c-13 -6 -15 -9 -5 -9 8 0 22 4 30 9 18 12 2 12 -25 0z"/>
<path d="M8000 4730 c0 -5 7 -10 16 -10 8 0 12 5 9 10 -3 6 -10 10 -16 10 -5
0 -9 -4 -9 -10z"/>
<path d="M1885 4686 c-87 -38 -125 -57 -125 -66 0 -6 -5 -10 -11 -10 -6 0 -17
-7 -25 -15 -8 -8 -21 -12 -29 -9 -9 4 -15 0 -15 -9 0 -10 -15 -17 -46 -22 -32
-4 -44 -10 -40 -20 2 -7 -2 -19 -10 -25 -24 -21 -16 -34 30 -53 32 -13 66 -18
118 -16 178 5 194 3 237 -34 18 -15 37 -27 42 -27 6 0 28 -9 49 -19 22 -11 40
-16 40 -13 0 4 -15 34 -34 67 -18 33 -41 76 -52 95 -10 19 -21 37 -24 40 -3 3
-21 37 -40 77 l-35 72 -30 -13z"/>
<path d="M4521 4660 c-28 -11 -40 -20 -32 -24 7 -5 10 -14 7 -22 -8 -22 31
-17 56 6 22 20 32 47 20 54 -4 2 -27 -4 -51 -14z"/>
<path d="M7960 4651 c0 -7 -12 -22 -26 -33 -24 -19 -24 -21 -7 -33 10 -7 31
-11 46 -8 32 6 36 20 6 19 -29 -1 -36 22 -9 26 19 3 20 5 6 23 -10 13 -15 15
-16 6z"/>
<path d="M8030 4641 c0 -5 7 -11 15 -15 8 -3 15 -1 15 3 0 5 -7 11 -15 15 -8
3 -15 1 -15 -3z"/>
<path d="M6257 4591 c-17 -6 -17 -8 -3 -20 13 -11 18 -10 31 2 26 27 13 35
-28 18z"/>
<path d="M7803 4594 c-19 -8 -16 -20 17 -56 17 -18 30 -29 30 -25 0 4 9 3 20
-3 16 -9 20 -8 20 6 0 11 5 14 18 9 14 -5 15 -4 4 7 -10 10 -16 10 -32 0 -22
-13 -22 -13 -24 38 -1 25 -25 36 -53 24z"/>
<path d="M6170 4550 c0 -6 7 -10 15 -10 8 0 15 2 15 4 0 2 -7 6 -15 10 -8 3
-15 1 -15 -4z"/>
<path d="M6512 4536 c7 -8 15 -12 17 -11 5 6 -10 25 -20 25 -5 0 -4 -6 3 -14z"/>
<path d="M7530 4520 c0 -5 5 -10 10 -10 6 0 10 5 10 10 0 6 -4 10 -10 10 -5 0
-10 -4 -10 -10z"/>
<path d="M6490 4510 c0 -5 5 -10 10 -10 6 0 10 5 10 10 0 6 -4 10 -10 10 -5 0
-10 -4 -10 -10z"/>
<path d="M6512 4469 c1 -12 8 -24 15 -26 7 -3 9 3 6 17 -8 29 -25 37 -21 9z"/>
<path d="M6568 4462 c2 -18 8 -32 13 -32 13 0 11 24 -4 45 -13 16 -14 15 -9
-13z"/>
<path d="M7060 4436 c0 -2 8 -10 18 -17 15 -13 16 -12 3 4 -13 16 -21 21 -21
13z"/>
<path d="M3480 4411 c0 -5 6 -12 13 -14 10 -4 10 -6 0 -6 -14 -1 -19 -41 -5
-41 26 1 42 48 20 61 -17 11 -28 11 -28 0z"/>
<path d="M6314 4399 c-8 -14 14 -29 33 -22 18 7 17 20 -3 27 -21 8 -22 8 -30
-5z"/>
<path d="M7740 4400 c0 -5 5 -10 11 -10 5 0 7 5 4 10 -3 6 -8 10 -11 10 -2 0
-4 -4 -4 -10z"/>
<path d="M7390 4390 c0 -5 -6 -10 -13 -10 -22 0 -51 -37 -37 -45 7 -4 16 -2
20 5 6 9 10 6 15 -10 7 -22 8 -22 18 -4 14 23 17 74 6 74 -5 0 -9 -4 -9 -10z"/>
<path d="M7230 4361 c-13 -26 -13 -31 4 -31 9 0 13 10 12 25 -1 30 -2 30 -16
6z"/>
<path d="M7746 4335 c-8 -23 23 -64 49 -65 5 0 -1 7 -13 16 -26 18 -29 36 -4
28 13 -5 14 -4 3 4 -7 5 -17 15 -21 22 -5 8 -9 7 -14 -5z"/>
<path d="M4860 4310 c0 -11 5 -20 10 -20 6 0 10 9 10 20 0 11 -4 20 -10 20 -5
0 -10 -9 -10 -20z"/>
<path d="M3383 4308 c-15 -19 -24 -88 -12 -88 31 0 49 22 49 60 0 41 -17 53
-37 28z"/>
<path d="M5826 4295 c-3 -8 -1 -15 4 -15 6 0 10 7 10 15 0 8 -2 15 -4 15 -2 0
-6 -7 -10 -15z"/>
<path d="M7495 4240 c-4 -6 0 -10 9 -10 8 0 17 -6 19 -12 4 -8 6 -7 6 3 1 19
-25 33 -34 19z"/>
<path d="M7560 4235 c0 -8 7 -15 15 -15 18 0 18 -1 2 -34 -8 -14 -17 -23 -20
-19 -4 3 -7 1 -7 -5 0 -7 11 -12 23 -12 13 0 32 -9 42 -20 20 -22 35 -18 35
11 0 10 4 19 10 19 21 0 -14 48 -50 69 -45 25 -50 26 -50 6z"/>
<path d="M7884 4225 c9 -13 16 -31 16 -38 0 -8 8 -17 19 -20 16 -4 17 -2 7 17
-23 42 -41 66 -50 66 -4 0 -1 -11 8 -25z"/>
<path d="M6671 4209 c-25 -27 -44 -90 -32 -102 5 -5 12 9 16 33 4 23 16 51 27
62 11 11 17 22 15 24 -3 3 -14 -5 -26 -17z"/>
<path d="M3038 4189 c-22 -12 -23 -27 -3 -50 13 -14 20 -15 40 -5 27 12 34 36
10 36 -8 0 -15 7 -15 15 0 17 -8 18 -32 4z"/>
<path d="M7112 4158 c-18 -18 -15 -36 8 -43 28 -9 48 5 28 19 -8 6 -17 17 -19
24 -3 10 -7 10 -17 0z"/>
<path d="M7806 4145 c31 -27 44 -31 44 -15 0 9 -51 40 -66 40 -4 0 6 -11 22
-25z"/>
<path d="M3425 4130 c-3 -5 -2 -10 4 -10 5 0 13 5 16 10 3 6 2 10 -4 10 -5 0
-13 -4 -16 -10z"/>
<path d="M3201 4117 c-6 -8 -8 -16 -5 -20 10 -9 34 4 34 19 0 18 -14 18 -29 1z"/>
<path d="M7435 4100 c3 -5 10 -10 16 -10 5 0 9 5 9 10 0 6 -7 10 -16 10 -8 0
-12 -4 -9 -10z"/>
<path d="M7741 4094 c0 -11 3 -14 6 -6 3 7 2 16 -1 19 -3 4 -6 -2 -5 -13z"/>
<path d="M7402 4070 c0 -14 2 -19 5 -12 2 6 2 18 0 25 -3 6 -5 1 -5 -13z"/>
<path d="M7690 4065 c0 -8 7 -15 15 -15 10 0 15 -11 15 -35 0 -19 4 -35 10
-35 5 0 9 18 8 40 -1 27 -6 40 -15 40 -8 0 -11 5 -8 10 3 6 -1 10 -9 10 -9 0
-16 -7 -16 -15z"/>
<path d="M7763 4035 c-6 -14 -7 -27 -3 -30 5 -3 11 1 14 7 5 10 7 10 12 1 3
-7 10 -13 15 -13 5 0 3 14 -6 30 -9 17 -17 30 -18 30 -1 0 -7 -11 -14 -25z"/>
<path d="M7268 4026 c-10 -10 -18 -11 -36 -3 -18 8 -26 7 -39 -6 -15 -15 -15
-17 3 -24 10 -4 26 -16 36 -28 16 -20 16 -20 23 7 4 15 12 26 17 25 6 -1 12 8
14 21 4 25 0 28 -18 8z"/>
<path d="M7839 3998 c4 -28 6 -29 9 -9 2 13 0 27 -5 32 -6 6 -7 -3 -4 -23z"/>
<path d="M2650 3985 c0 -4 7 -20 16 -37 8 -16 17 -40 18 -52 4 -34 60 -122
112 -173 29 -29 46 -62 38 -75 -4 -7 4 -3 18 10 13 12 30 22 36 22 23 0 12 23
-35 75 -85 91 -158 177 -176 206 -18 28 -27 35 -27 24z"/>
<path d="M7592 3978 c5 -15 28 -18 29 -3 0 6 -7 12 -17 13 -10 3 -15 -1 -12
-10z"/>
<path d="M5410 3960 c0 -5 5 -10 11 -10 5 0 7 5 4 10 -3 6 -8 10 -11 10 -2 0
-4 -4 -4 -10z"/>
<path d="M6827 3942 c-7 -27 9 -50 24 -35 13 13 9 45 -7 50 -6 2 -14 -5 -17
-15z"/>
<path d="M7680 3939 c0 -5 5 -7 10 -4 6 3 10 8 10 11 0 2 -4 4 -10 4 -5 0 -10
-5 -10 -11z"/>
<path d="M7270 3910 c-15 -9 14 -36 39 -35 16 0 25 7 27 20 3 16 -3 20 -27 20
-17 0 -35 -2 -39 -5z"/>
<path d="M7710 3890 c0 -19 3 -21 12 -12 9 9 9 15 0 24 -9 9 -12 7 -12 -12z"/>
<path d="M5900 3880 c-10 -7 -11 -10 -2 -10 6 0 12 -11 12 -25 0 -35 37 -34
51 1 5 15 8 28 7 29 -12 9 -56 12 -68 5z"/>
<path d="M6025 3869 c-12 -19 5 -23 22 -6 16 16 16 17 1 17 -9 0 -20 -5 -23
-11z"/>
<path d="M7170 3836 c5 -13 6 -33 4 -44 -4 -14 0 -21 15 -25 12 -3 21 0 21 6
0 7 3 23 6 37 4 19 3 21 -5 10 -8 -12 -12 -9 -20 13 -6 15 -15 27 -21 27 -6 0
-6 -9 0 -24z"/>
<path d="M7695 3851 c-3 -5 -1 -12 5 -16 5 -3 10 1 10 9 0 18 -6 21 -15 7z"/>
<path d="M3429 3814 c-5 -15 -7 -29 -4 -33 11 -10 40 16 41 38 2 30 -24 26
-37 -5z"/>
<path d="M6916 3775 c4 -8 8 -15 10 -15 2 0 4 7 4 15 0 8 -4 15 -10 15 -5 0
-7 -7 -4 -15z"/>
<path d="M7440 3713 c0 -5 5 -15 10 -23 8 -12 10 -11 10 8 0 12 -4 22 -10 22
-5 0 -10 -3 -10 -7z"/>
<path d="M3990 3693 c0 -4 5 -15 10 -23 8 -13 10 -13 10 2 0 9 -4 20 -10 23
-5 3 -10 3 -10 -2z"/>
<path d="M3430 3640 c0 -13 18 -22 24 -11 3 5 -1 11 -9 15 -8 3 -15 1 -15 -4z"/>
<path d="M3280 3615 c-10 -12 -10 -15 4 -15 9 0 16 7 16 15 0 8 -2 15 -4 15
-2 0 -9 -7 -16 -15z"/>
<path d="M7047 3489 c5 -18 39 -39 64 -39 5 0 9 11 9 24 0 16 -7 26 -22 30
-43 11 -57 7 -51 -15z"/>
<path d="M2676 3471 c-4 -7 -5 -15 -2 -18 9 -9 19 4 14 18 -4 11 -6 11 -12 0z"/>
<path d="M6860 3463 c6 -13 15 -23 20 -23 4 0 17 -3 27 -7 16 -6 16 -5 4 10
-8 10 -19 16 -25 14 -6 -2 -17 3 -24 12 -11 14 -11 13 -2 -6z"/>
<path d="M7266 3472 c-5 -4 18 -52 25 -52 13 0 60 43 54 49 -7 6 -73 9 -79 3z"/>
<path d="M6953 3426 c4 -11 36 -29 75 -41 25 -7 42 19 24 37 -14 14 -104 18
-99 4z"/>
<path d="M4022 3421 c-8 -5 -12 -17 -10 -27 2 -15 5 -13 15 9 14 30 14 30 -5
18z"/>
<path d="M7237 3406 c-6 -15 1 -26 15 -26 4 0 8 9 8 20 0 23 -15 27 -23 6z"/>
<path d="M2626 3347 c17 -32 35 -48 65 -60 l40 -16 -57 60 c-32 32 -61 59 -65
59 -4 0 3 -20 17 -43z"/>
<path d="M2555 3340 c-3 -5 -1 -10 4 -10 6 0 11 5 11 10 0 6 -2 10 -4 10 -3 0
-8 -4 -11 -10z"/>
<path d="M3036 3337 c3 -10 9 -15 12 -12 3 3 0 11 -7 18 -10 9 -11 8 -5 -6z"/>
<path d="M2523 3285 c-9 -25 15 -42 85 -61 37 -9 75 -21 85 -26 16 -9 18 -7
12 14 -9 30 -13 33 -55 48 -105 37 -121 40 -127 25z"/>
<path d="M3220 3245 c0 -8 7 -15 15 -15 8 0 15 -7 15 -15 0 -8 5 -15 10 -15 6
0 4 13 -5 30 -17 32 -35 40 -35 15z"/>
<path d="M2720 3220 c0 -6 7 -13 15 -16 8 -4 13 -10 10 -14 -2 -4 12 -10 33
-13 20 -3 48 -9 62 -12 14 -3 -4 10 -40 29 -71 38 -80 41 -80 26z"/>
<path d="M3271 3164 c-1 -24 47 -74 72 -74 9 0 17 6 17 14 0 19 -50 58 -66 52
-7 -3 -15 3 -17 12 -4 13 -5 12 -6 -4z"/>
<path d="M3657 3153 c-4 -3 -7 -11 -7 -17 0 -6 5 -5 12 2 6 6 9 14 7 17 -3 3
-9 2 -12 -2z"/>
<path d="M3513 3135 c-8 -22 6 -33 17 -15 13 20 12 30 0 30 -6 0 -13 -7 -17
-15z"/>
<path d="M3585 3090 c3 -5 8 -10 11 -10 2 0 4 5 4 10 0 6 -5 10 -11 10 -5 0
-7 -4 -4 -10z"/>
<path d="M10640 3056 c0 -8 -6 -16 -12 -19 -10 -4 -10 -7 0 -18 6 -7 12 -23
12 -36 0 -18 6 -23 26 -23 33 0 54 -21 54 -54 0 -16 6 -26 15 -26 11 0 15 -11
15 -40 0 -29 4 -40 15 -40 8 0 15 -4 15 -10 0 -5 5 -10 10 -10 6 0 10 37 10
90 l0 90 -40 0 c-40 0 -40 0 -40 39 0 40 0 40 43 44 l42 4 -42 1 c-24 1 -43 7
-43 12 0 6 -18 10 -40 10 -28 0 -40 -4 -40 -14z"/>
<path d="M2240 2513 c-28 -11 -93 -91 -84 -104 3 -5 1 -9 -4 -9 -5 0 -14 -18
-20 -40 -8 -33 -7 -46 9 -77 10 -21 19 -42 19 -48 0 -6 15 -25 33 -43 54 -53
107 -40 147 37 22 42 -10 251 -38 251 -9 0 -12 3 -9 7 9 8 -12 33 -27 32 -6 0
-18 -3 -26 -6z"/>
<path d="M1740 1724 c0 -19 6 -42 14 -50 8 -8 31 -14 50 -14 l36 0 0 50 0 50
-50 0 -50 0 0 -36z"/>
<path d="M10480 1690 c0 -5 11 -10 25 -10 23 0 25 -4 25 -40 0 -22 5 -40 11
-40 19 0 53 22 81 51 l27 29 -45 0 c-24 0 -44 5 -44 10 0 6 -18 10 -40 10 -22
0 -40 -4 -40 -10z"/>
<path d="M1898 1663 c7 -3 16 -2 19 1 4 3 -2 6 -13 5 -11 0 -14 -3 -6 -6z"/>
<path d="M10771 850 c-6 -16 -16 -43 -22 -60 -6 -16 -15 -30 -20 -30 -5 0 -9
-13 -9 -29 0 -16 -6 -34 -14 -40 -8 -7 -17 -26 -20 -44 -3 -18 -20 -46 -36
-64 -17 -18 -30 -37 -30 -42 0 -6 -4 -11 -10 -11 -5 0 -12 -11 -16 -25 -3 -14
-10 -25 -15 -25 -5 0 -14 -10 -19 -22 -6 -13 -14 -30 -19 -38 -5 -8 -19 -37
-31 -64 -13 -27 -46 -83 -73 -125 -28 -42 -58 -89 -67 -106 -9 -16 -26 -47
-38 -68 -12 -21 -22 -42 -22 -47 0 -6 93 -10 245 -10 l245 0 0 440 c0 246 -4
440 -9 440 -5 0 -14 -13 -20 -30z"/>
</g>
</svg>
